<svg class="wavetable-generator-result" height="100%" viewBox="0 0 64 64" width="100%" xmlns="http://www.w3.org/2000/svg" xmlns:xlink="http://www.w3.org/1999/xlink" style="position: absolute; width: 0; height: 0; fill: currentColor" id="svg_icons_sprite">
<rect height="100%" width="100%" fill="red" />
<path class="index0 og2" d="M1,10%l1,0.78125% 1,0.78125% 1,0.78125% 1,0.78125% 1,0.78125% 1,0.78125% 1,0.78125% 1,0.78125% 1,0.78125% 1,0.78125% 1,0.78125% 1,0.78125% 1,0.78125% 1,0.78125% 1,0.78125% 1,0.78125% 1,0.78125% 1,0.78125% 1,0.78125% 1,0.78125% 1,0.78125% 1,0.78125% 1,0.78125% 1,0.78125% 1,0.78125% 1,0.78125% 1,0.78125% 1,0.78125% 1,0.78125% 1,0.78125% 1,0.78125% 1,0.78125% 1,0.78125% 1,0.78125% 1,0.78125% 1,0.78125% 1,0.78125% 1,0.78125% 1,0.78125% 1,0.78125% 1,0.78125% 1,0.78125% 1,0.78125% 1,0.78125% 1,0.78125% 1,0.78125% 1,0.78125% 1,0.78125% 1,0.78125% 1,0.78125% 1,0.78125% 1,0.78125% 1,0.78125% 1,0.78125% 1,0.78125% 1,0.78125% 1,0.78125% 1,0.78125% 1,0.78125% 1,0.78125% 1,0.78125% 1,0.78125% 1,11.78125%" style="
    stroke: blue;
    stroke-width: 1;
"></path><path class="index1 og2" d="M0,50%l1,0.78125% 1,0.78125% 1,0.78125% 1,0.78125% 1,0.78125% 1,0.78125% 1,0.78125% 1,0.78125% 1,0.78125% 1,0.78125% 1,0.78125% 1,0.78125% 1,0.78125% 1,0.78125% 1,0.78125% 1,0.78125% 1,0.78125% 1,0.78125% 1,0.78125% 1,0.78125% 1,0.78125% 1,0.78125% 1,0.78125% 1,0.78125% 1,0.78125% 1,0.78125% 1,0.78125% 1,0.78125% 1,0.78125% 1,0.78125% 1,0.78125% 1,0.78125% 1,0.78125% 1,0.78125% 1,0.78125% 1,0.78125% 1,0.78125% 1,0.78125% 1,0.78125% 1,0.78125% 1,0.78125% 1,0.78125% 1,0.78125% 1,0.78125% 1,0.78125% 1,0.78125% 1,0.78125% 1,0.78125% 1,0.78125% 1,0.78125% 1,0.78125% 1,0.78125% 1,0.78125% 1,0.78125% 1,0.78125% 1,0.78125% 1,0.78125% 1,0.78125% 1,0.78125% 1,0.78125% 1,0.78125% 1,0.78125% 1,0.78125%"></path><path class="index2 og2" d="M0,50%l1,0.78125% 1,0.78125% 1,0.78125% 1,0.78125% 1,0.78125% 1,0.78125% 1,0.78125% 1,0.78125% 1,0.78125% 1,0.78125% 1,0.78125% 1,0.78125% 1,0.78125% 1,0.78125% 1,0.78125% 1,0.78125% 1,0.78125% 1,0.78125% 1,0.78125% 1,0.78125% 1,0.78125% 1,0.78125% 1,0.78125% 1,0.78125% 1,0.78125% 1,0.78125% 1,0.78125% 1,0.78125% 1,0.78125% 1,0.78125% 1,0.78125% 1,0.78125% 1,0.78125% 1,0.78125% 1,0.78125% 1,0.78125% 1,0.78125% 1,0.78125% 1,0.78125% 1,0.78125% 1,0.78125% 1,0.78125% 1,0.78125% 1,0.78125% 1,0.78125% 1,0.78125% 1,0.78125% 1,0.78125% 1,0.78125% 1,0.78125% 1,0.78125% 1,0.78125% 1,0.78125% 1,0.78125% 1,0.78125% 1,0.78125% 1,0.78125% 1,0.78125% 1,0.78125% 1,0.78125% 1,0.78125% 1,0.78125% 1,0.78125%"></path><path class="index3 og2" d="M0,50%l1,0.78125% 1,0.78125% 1,0.78125% 1,0.78125% 1,0.78125% 1,0.78125% 1,0.78125% 1,0.78125% 1,0.78125% 1,0.78125% 1,0.78125% 1,0.78125% 1,0.78125% 1,0.78125% 1,0.78125% 1,0.78125% 1,0.78125% 1,0.78125% 1,0.78125% 1,0.78125% 1,0.78125% 1,0.78125% 1,0.78125% 1,0.78125% 1,0.78125% 1,0.78125% 1,0.78125% 1,0.78125% 1,0.78125% 1,0.78125% 1,0.78125% 1,0.78125% 1,0.78125% 1,0.78125% 1,0.78125% 1,0.78125% 1,0.78125% 1,0.78125% 1,0.78125% 1,0.78125% 1,0.78125% 1,0.78125% 1,0.78125% 1,0.78125% 1,0.78125% 1,0.78125% 1,0.78125% 1,0.78125% 1,0.78125% 1,0.78125% 1,0.78125% 1,0.78125% 1,0.78125% 1,0.78125% 1,0.78125% 1,0.78125% 1,0.78125% 1,0.78125% 1,0.78125% 1,0.78125% 1,0.78125% 1,0.78125% 1,0.78125%"></path><path class="index4 og2" d="M0,50%l1,0.78125% 1,0.78125% 1,0.78125% 1,0.78125% 1,0.78125% 1,0.78125% 1,0.78125% 1,0.78125% 1,0.78125% 1,0.78125% 1,0.78125% 1,0.78125% 1,0.78125% 1,0.78125% 1,0.78125% 1,0.78125% 1,0.78125% 1,0.78125% 1,0.78125% 1,0.78125% 1,0.78125% 1,0.78125% 1,0.78125% 1,0.78125% 1,0.78125% 1,0.78125% 1,0.78125% 1,0.78125% 1,0.78125% 1,0.78125% 1,0.78125% 1,0.78125% 1,0.78125% 1,0.78125% 1,0.78125% 1,0.78125% 1,0.78125% 1,0.78125% 1,0.78125% 1,0.78125% 1,0.78125% 1,0.78125% 1,0.78125% 1,0.78125% 1,0.78125% 1,0.78125% 1,0.78125% 1,0.78125% 1,0.78125% 1,0.78125% 1,0.78125% 1,0.78125% 1,0.78125% 1,0.78125% 1,0.78125% 1,0.78125% 1,0.78125% 1,0.78125% 1,0.78125% 1,0.78125% 1,0.78125% 1,0.78125% 1,0.78125%"></path><path class="index5 og2" d="M0,50%l1,0.78125% 1,0.78125% 1,0.78125% 1,0.78125% 1,0.78125% 1,0.78125% 1,0.78125% 1,0.78125% 1,0.78125% 1,0.78125% 1,0.78125% 1,0.78125% 1,0.78125% 1,0.78125% 1,0.78125% 1,0.78125% 1,0.78125% 1,0.78125% 1,0.78125% 1,0.78125% 1,0.78125% 1,0.78125% 1,0.78125% 1,0.78125% 1,0.78125% 1,0.78125% 1,0.78125% 1,0.78125% 1,0.78125% 1,0.78125% 1,0.78125% 1,0.78125% 1,0.78125% 1,0.78125% 1,0.78125% 1,0.78125% 1,0.78125% 1,0.78125% 1,0.78125% 1,0.78125% 1,0.78125% 1,0.78125% 1,0.78125% 1,0.78125% 1,0.78125% 1,0.78125% 1,0.78125% 1,0.78125% 1,0.78125% 1,0.78125% 1,0.78125% 1,0.78125% 1,0.78125% 1,0.78125% 1,0.78125% 1,0.78125% 1,0.78125% 1,0.78125% 1,0.78125% 1,0.78125% 1,0.78125% 1,0.78125% 1,0.78125%"></path><path class="index6 og2" d="M0,50%l1,0.78125% 1,0.78125% 1,0.78125% 1,0.78125% 1,0.78125% 1,0.78125% 1,0.78125% 1,0.78125% 1,0.78125% 1,0.78125% 1,0.78125% 1,0.78125% 1,0.78125% 1,0.78125% 1,0.78125% 1,0.78125% 1,0.78125% 1,0.78125% 1,0.78125% 1,0.78125% 1,0.78125% 1,0.78125% 1,0.78125% 1,0.78125% 1,0.78125% 1,0.78125% 1,0.78125% 1,0.78125% 1,0.78125% 1,0.78125% 1,0.78125% 1,0.78125% 1,0.78125% 1,0.78125% 1,0.78125% 1,0.78125% 1,0.78125% 1,0.78125% 1,0.78125% 1,0.78125% 1,0.78125% 1,0.78125% 1,0.78125% 1,0.78125% 1,0.78125% 1,0.78125% 1,0.78125% 1,0.78125% 1,0.78125% 1,0.78125% 1,0.78125% 1,0.78125% 1,0.78125% 1,0.78125% 1,0.78125% 1,0.78125% 1,0.78125% 1,0.78125% 1,0.78125% 1,0.78125% 1,0.78125% 1,0.78125% 1,0.78125%"></path><path class="index7 og2" d="M0,50%l1,0.78125% 1,0.78125% 1,0.78125% 1,0.78125% 1,0.78125% 1,0.78125% 1,0.78125% 1,0.78125% 1,0.78125% 1,0.78125% 1,0.78125% 1,0.78125% 1,0.78125% 1,0.78125% 1,0.78125% 1,0.78125% 1,0.78125% 1,0.78125% 1,0.78125% 1,0.78125% 1,0.78125% 1,0.78125% 1,0.78125% 1,0.78125% 1,0.78125% 1,0.78125% 1,0.78125% 1,0.78125% 1,0.78125% 1,0.78125% 1,0.78125% 1,0.78125% 1,0.78125% 1,0.78125% 1,0.78125% 1,0.78125% 1,0.78125% 1,0.78125% 1,0.78125% 1,0.78125% 1,0.78125% 1,0.78125% 1,0.78125% 1,0.78125% 1,0.78125% 1,0.78125% 1,0.78125% 1,0.78125% 1,0.78125% 1,0.78125% 1,0.78125% 1,0.78125% 1,0.78125% 1,0.78125% 1,0.78125% 1,0.78125% 1,0.78125% 1,0.78125% 1,0.78125% 1,0.78125% 1,0.78125% 1,0.78125% 1,0.78125%"></path><path class="index8 og2" d="M0,50%l1,0.78125% 1,0.78125% 1,0.78125% 1,0.78125% 1,0.78125% 1,0.78125% 1,0.78125% 1,0.78125% 1,0.78125% 1,0.78125% 1,0.78125% 1,0.78125% 1,0.78125% 1,0.78125% 1,0.78125% 1,0.78125% 1,0.78125% 1,0.78125% 1,0.78125% 1,0.78125% 1,0.78125% 1,0.78125% 1,0.78125% 1,0.78125% 1,0.78125% 1,0.78125% 1,0.78125% 1,0.78125% 1,0.78125% 1,0.78125% 1,0.78125% 1,0.78125% 1,0.78125% 1,0.78125% 1,0.78125% 1,0.78125% 1,0.78125% 1,0.78125% 1,0.78125% 1,0.78125% 1,0.78125% 1,0.78125% 1,0.78125% 1,0.78125% 1,0.78125% 1,0.78125% 1,0.78125% 1,0.78125% 1,0.78125% 1,0.78125% 1,0.78125% 1,0.78125% 1,0.78125% 1,0.78125% 1,0.78125% 1,0.78125% 1,0.78125% 1,0.78125% 1,0.78125% 1,0.78125% 1,0.78125% 1,0.78125% 1,0.78125%"></path><path class="index9 og2" d="M0,50%l1,0.78125% 1,0.78125% 1,0.78125% 1,0.78125% 1,0.78125% 1,0.78125% 1,0.78125% 1,0.78125% 1,0.78125% 1,0.78125% 1,0.78125% 1,0.78125% 1,0.78125% 1,0.78125% 1,0.78125% 1,0.78125% 1,0.78125% 1,0.78125% 1,0.78125% 1,0.78125% 1,0.78125% 1,0.78125% 1,0.78125% 1,0.78125% 1,0.78125% 1,0.78125% 1,0.78125% 1,0.78125% 1,0.78125% 1,0.78125% 1,0.78125% 1,0.78125% 1,0.78125% 1,0.78125% 1,0.78125% 1,0.78125% 1,0.78125% 1,0.78125% 1,0.78125% 1,0.78125% 1,0.78125% 1,0.78125% 1,0.78125% 1,0.78125% 1,0.78125% 1,0.78125% 1,0.78125% 1,0.78125% 1,0.78125% 1,0.78125% 1,0.78125% 1,0.78125% 1,0.78125% 1,0.78125% 1,0.78125% 1,0.78125% 1,0.78125% 1,0.78125% 1,0.78125% 1,0.78125% 1,0.78125% 1,0.78125% 1,0.78125%"></path><path class="index10 og2" d="M0,50%l1,0.78125% 1,0.78125% 1,0.78125% 1,0.78125% 1,0.78125% 1,0.78125% 1,0.78125% 1,0.78125% 1,0.78125% 1,0.78125% 1,0.78125% 1,0.78125% 1,0.78125% 1,0.78125% 1,0.78125% 1,0.78125% 1,0.78125% 1,0.78125% 1,0.78125% 1,0.78125% 1,0.78125% 1,0.78125% 1,0.78125% 1,0.78125% 1,0.78125% 1,0.78125% 1,0.78125% 1,0.78125% 1,0.78125% 1,0.78125% 1,0.78125% 1,0.78125% 1,0.78125% 1,0.78125% 1,0.78125% 1,0.78125% 1,0.78125% 1,0.78125% 1,0.78125% 1,0.78125% 1,0.78125% 1,0.78125% 1,0.78125% 1,0.78125% 1,0.78125% 1,0.78125% 1,0.78125% 1,0.78125% 1,0.78125% 1,0.78125% 1,0.78125% 1,0.78125% 1,0.78125% 1,0.78125% 1,0.78125% 1,0.78125% 1,0.78125% 1,0.78125% 1,0.78125% 1,0.78125% 1,0.78125% 1,0.78125% 1,0.78125%"></path><path class="index11 og2" d="M0,50%l1,0.78125% 1,0.78125% 1,0.78125% 1,0.78125% 1,0.78125% 1,0.78125% 1,0.78125% 1,0.78125% 1,0.78125% 1,0.78125% 1,0.78125% 1,0.78125% 1,0.78125% 1,0.78125% 1,0.78125% 1,0.78125% 1,0.78125% 1,0.78125% 1,0.78125% 1,0.78125% 1,0.78125% 1,0.78125% 1,0.78125% 1,0.78125% 1,0.78125% 1,0.78125% 1,0.78125% 1,0.78125% 1,0.78125% 1,0.78125% 1,0.78125% 1,0.78125% 1,0.78125% 1,0.78125% 1,0.78125% 1,0.78125% 1,0.78125% 1,0.78125% 1,0.78125% 1,0.78125% 1,0.78125% 1,0.78125% 1,0.78125% 1,0.78125% 1,0.78125% 1,0.78125% 1,0.78125% 1,0.78125% 1,0.78125% 1,0.78125% 1,0.78125% 1,0.78125% 1,0.78125% 1,0.78125% 1,0.78125% 1,0.78125% 1,0.78125% 1,0.78125% 1,0.78125% 1,0.78125% 1,0.78125% 1,0.78125% 1,0.78125%"></path><path class="index12 og2" d="M0,50%l1,0.78125% 1,0.78125% 1,0.78125% 1,0.78125% 1,0.78125% 1,0.78125% 1,0.78125% 1,0.78125% 1,0.78125% 1,0.78125% 1,0.78125% 1,0.78125% 1,0.78125% 1,0.78125% 1,0.78125% 1,0.78125% 1,0.78125% 1,0.78125% 1,0.78125% 1,0.78125% 1,0.78125% 1,0.78125% 1,0.78125% 1,0.78125% 1,0.78125% 1,0.78125% 1,0.78125% 1,0.78125% 1,0.78125% 1,0.78125% 1,0.78125% 1,0.78125% 1,0.78125% 1,0.78125% 1,0.78125% 1,0.78125% 1,0.78125% 1,0.78125% 1,0.78125% 1,0.78125% 1,0.78125% 1,0.78125% 1,0.78125% 1,0.78125% 1,0.78125% 1,0.78125% 1,0.78125% 1,0.78125% 1,0.78125% 1,0.78125% 1,0.78125% 1,0.78125% 1,0.78125% 1,0.78125% 1,0.78125% 1,0.78125% 1,0.78125% 1,0.78125% 1,0.78125% 1,0.78125% 1,0.78125% 1,0.78125% 1,0.78125%"></path><path class="index13 og2" d="M0,50%l1,0.78125% 1,0.78125% 1,0.78125% 1,0.78125% 1,0.78125% 1,0.78125% 1,0.78125% 1,0.78125% 1,0.78125% 1,0.78125% 1,0.78125% 1,0.78125% 1,0.78125% 1,0.78125% 1,0.78125% 1,0.78125% 1,0.78125% 1,0.78125% 1,0.78125% 1,0.78125% 1,0.78125% 1,0.78125% 1,0.78125% 1,0.78125% 1,0.78125% 1,0.78125% 1,0.78125% 1,0.78125% 1,0.78125% 1,0.78125% 1,0.78125% 1,0.78125% 1,0.78125% 1,0.78125% 1,0.78125% 1,0.78125% 1,0.78125% 1,0.78125% 1,0.78125% 1,0.78125% 1,0.78125% 1,0.78125% 1,0.78125% 1,0.78125% 1,0.78125% 1,0.78125% 1,0.78125% 1,0.78125% 1,0.78125% 1,0.78125% 1,0.78125% 1,0.78125% 1,0.78125% 1,0.78125% 1,0.78125% 1,0.78125% 1,0.78125% 1,0.78125% 1,0.78125% 1,0.78125% 1,0.78125% 1,0.78125% 1,0.78125%"></path><path class="index14 og2" d="M0,50%l1,0.78125% 1,0.78125% 1,0.78125% 1,0.78125% 1,0.78125% 1,0.78125% 1,0.78125% 1,0.78125% 1,0.78125% 1,0.78125% 1,0.78125% 1,0.78125% 1,0.78125% 1,0.78125% 1,0.78125% 1,0.78125% 1,0.78125% 1,0.78125% 1,0.78125% 1,0.78125% 1,0.78125% 1,0.78125% 1,0.78125% 1,0.78125% 1,0.78125% 1,0.78125% 1,0.78125% 1,0.78125% 1,0.78125% 1,0.78125% 1,0.78125% 1,0.78125% 1,0.78125% 1,0.78125% 1,0.78125% 1,0.78125% 1,0.78125% 1,0.78125% 1,0.78125% 1,0.78125% 1,0.78125% 1,0.78125% 1,0.78125% 1,0.78125% 1,0.78125% 1,0.78125% 1,0.78125% 1,0.78125% 1,0.78125% 1,0.78125% 1,0.78125% 1,0.78125% 1,0.78125% 1,0.78125% 1,0.78125% 1,0.78125% 1,0.78125% 1,0.78125% 1,0.78125% 1,0.78125% 1,0.78125% 1,0.78125% 1,0.78125%"></path><path class="index15 og2" d="M0,50%l1,0.78125% 1,0.78125% 1,0.78125% 1,0.78125% 1,0.78125% 1,0.78125% 1,0.78125% 1,0.78125% 1,0.78125% 1,0.78125% 1,0.78125% 1,0.78125% 1,0.78125% 1,0.78125% 1,0.78125% 1,0.78125% 1,0.78125% 1,0.78125% 1,0.78125% 1,0.78125% 1,0.78125% 1,0.78125% 1,0.78125% 1,0.78125% 1,0.78125% 1,0.78125% 1,0.78125% 1,0.78125% 1,0.78125% 1,0.78125% 1,0.78125% 1,0.78125% 1,0.78125% 1,0.78125% 1,0.78125% 1,0.78125% 1,0.78125% 1,0.78125% 1,0.78125% 1,0.78125% 1,0.78125% 1,0.78125% 1,0.78125% 1,0.78125% 1,0.78125% 1,0.78125% 1,0.78125% 1,0.78125% 1,0.78125% 1,0.78125% 1,0.78125% 1,0.78125% 1,0.78125% 1,0.78125% 1,0.78125% 1,0.78125% 1,0.78125% 1,0.78125% 1,0.78125% 1,0.78125% 1,0.78125% 1,0.78125% 1,0.78125%"></path><path class="index16 og2" d="M0,50%l1,0.78125% 1,0.78125% 1,0.78125% 1,0.78125% 1,0.78125% 1,0.78125% 1,0.78125% 1,0.78125% 1,0.78125% 1,0.78125% 1,0.78125% 1,0.78125% 1,0.78125% 1,0.78125% 1,0.78125% 1,0.78125% 1,0.78125% 1,0.78125% 1,0.78125% 1,0.78125% 1,0.78125% 1,0.78125% 1,0.78125% 1,0.78125% 1,0.78125% 1,0.78125% 1,0.78125% 1,0.78125% 1,0.78125% 1,0.78125% 1,0.78125% 1,0.78125% 1,0.78125% 1,0.78125% 1,0.78125% 1,0.78125% 1,0.78125% 1,0.78125% 1,0.78125% 1,0.78125% 1,0.78125% 1,0.78125% 1,0.78125% 1,0.78125% 1,0.78125% 1,0.78125% 1,0.78125% 1,0.78125% 1,0.78125% 1,0.78125% 1,0.78125% 1,0.78125% 1,0.78125% 1,0.78125% 1,0.78125% 1,0.78125% 1,0.78125% 1,0.78125% 1,0.78125% 1,0.78125% 1,0.78125% 1,0.78125% 1,0.78125%"></path><path class="index17 og2" d="M0,50%l1,0.78125% 1,0.78125% 1,0.78125% 1,0.78125% 1,0.78125% 1,0.78125% 1,0.78125% 1,0.78125% 1,0.78125% 1,0.78125% 1,0.78125% 1,0.78125% 1,0.78125% 1,0.78125% 1,0.78125% 1,0.78125% 1,0.78125% 1,0.78125% 1,0.78125% 1,0.78125% 1,0.78125% 1,0.78125% 1,0.78125% 1,0.78125% 1,0.78125% 1,0.78125% 1,0.78125% 1,0.78125% 1,0.78125% 1,0.78125% 1,0.78125% 1,0.78125% 1,0.78125% 1,0.78125% 1,0.78125% 1,0.78125% 1,0.78125% 1,0.78125% 1,0.78125% 1,0.78125% 1,0.78125% 1,0.78125% 1,0.78125% 1,0.78125% 1,0.78125% 1,0.78125% 1,0.78125% 1,0.78125% 1,0.78125% 1,0.78125% 1,0.78125% 1,0.78125% 1,0.78125% 1,0.78125% 1,0.78125% 1,0.78125% 1,0.78125% 1,0.78125% 1,0.78125% 1,0.78125% 1,0.78125% 1,0.78125% 1,0.78125%"></path><path class="index18 og2" d="M0,50%l1,0.78125% 1,0.78125% 1,0.78125% 1,0.78125% 1,0.78125% 1,0.78125% 1,0.78125% 1,0.78125% 1,0.78125% 1,0.78125% 1,0.78125% 1,0.78125% 1,0.78125% 1,0.78125% 1,0.78125% 1,0.78125% 1,0.78125% 1,0.78125% 1,0.78125% 1,0.78125% 1,0.78125% 1,0.78125% 1,0.78125% 1,0.78125% 1,0.78125% 1,0.78125% 1,0.78125% 1,0.78125% 1,0.78125% 1,0.78125% 1,0.78125% 1,0.78125% 1,0.78125% 1,0.78125% 1,0.78125% 1,0.78125% 1,0.78125% 1,0.78125% 1,0.78125% 1,0.78125% 1,0.78125% 1,0.78125% 1,0.78125% 1,0.78125% 1,0.78125% 1,0.78125% 1,0.78125% 1,0.78125% 1,0.78125% 1,0.78125% 1,0.78125% 1,0.78125% 1,0.78125% 1,0.78125% 1,0.78125% 1,0.78125% 1,0.78125% 1,0.78125% 1,0.78125% 1,0.78125% 1,0.78125% 1,0.78125% 1,0.78125%"></path><path class="index19 og2" d="M0,50%l1,0.78125% 1,0.78125% 1,0.78125% 1,0.78125% 1,0.78125% 1,0.78125% 1,0.78125% 1,0.78125% 1,0.78125% 1,0.78125% 1,0.78125% 1,0.78125% 1,0.78125% 1,0.78125% 1,0.78125% 1,0.78125% 1,0.78125% 1,0.78125% 1,0.78125% 1,0.78125% 1,0.78125% 1,0.78125% 1,0.78125% 1,0.78125% 1,0.78125% 1,0.78125% 1,0.78125% 1,0.78125% 1,0.78125% 1,0.78125% 1,0.78125% 1,0.78125% 1,0.78125% 1,0.78125% 1,0.78125% 1,0.78125% 1,0.78125% 1,0.78125% 1,0.78125% 1,0.78125% 1,0.78125% 1,0.78125% 1,0.78125% 1,0.78125% 1,0.78125% 1,0.78125% 1,0.78125% 1,0.78125% 1,0.78125% 1,0.78125% 1,0.78125% 1,0.78125% 1,0.78125% 1,0.78125% 1,0.78125% 1,0.78125% 1,0.78125% 1,0.78125% 1,0.78125% 1,0.78125% 1,0.78125% 1,0.78125% 1,0.78125%"></path><path class="index20 og2" d="M0,50%l1,0.78125% 1,0.78125% 1,0.78125% 1,0.78125% 1,0.78125% 1,0.78125% 1,0.78125% 1,0.78125% 1,0.78125% 1,0.78125% 1,0.78125% 1,0.78125% 1,0.78125% 1,0.78125% 1,0.78125% 1,0.78125% 1,0.78125% 1,0.78125% 1,0.78125% 1,0.78125% 1,0.78125% 1,0.78125% 1,0.78125% 1,0.78125% 1,0.78125% 1,0.78125% 1,0.78125% 1,0.78125% 1,0.78125% 1,0.78125% 1,0.78125% 1,0.78125% 1,0.78125% 1,0.78125% 1,0.78125% 1,0.78125% 1,0.78125% 1,0.78125% 1,0.78125% 1,0.78125% 1,0.78125% 1,0.78125% 1,0.78125% 1,0.78125% 1,0.78125% 1,0.78125% 1,0.78125% 1,0.78125% 1,0.78125% 1,0.78125% 1,0.78125% 1,0.78125% 1,0.78125% 1,0.78125% 1,0.78125% 1,0.78125% 1,0.78125% 1,0.78125% 1,0.78125% 1,0.78125% 1,0.78125% 1,0.78125% 1,0.78125%"></path><path class="index21 og2" d="M0,50%l1,0.78125% 1,0.78125% 1,0.78125% 1,0.78125% 1,0.78125% 1,0.78125% 1,0.78125% 1,0.78125% 1,0.78125% 1,0.78125% 1,0.78125% 1,0.78125% 1,0.78125% 1,0.78125% 1,0.78125% 1,0.78125% 1,0.78125% 1,0.78125% 1,0.78125% 1,0.78125% 1,0.78125% 1,0.78125% 1,0.78125% 1,0.78125% 1,0.78125% 1,0.78125% 1,0.78125% 1,0.78125% 1,0.78125% 1,0.78125% 1,0.78125% 1,0.78125% 1,0.78125% 1,0.78125% 1,0.78125% 1,0.78125% 1,0.78125% 1,0.78125% 1,0.78125% 1,0.78125% 1,0.78125% 1,0.78125% 1,0.78125% 1,0.78125% 1,0.78125% 1,0.78125% 1,0.78125% 1,0.78125% 1,0.78125% 1,0.78125% 1,0.78125% 1,0.78125% 1,0.78125% 1,0.78125% 1,0.78125% 1,0.78125% 1,0.78125% 1,0.78125% 1,0.78125% 1,0.78125% 1,0.78125% 1,0.78125% 1,0.78125%"></path><path class="index22 og2" d="M0,50%l1,0.78125% 1,0.78125% 1,0.78125% 1,0.78125% 1,0.78125% 1,0.78125% 1,0.78125% 1,0.78125% 1,0.78125% 1,0.78125% 1,0.78125% 1,0.78125% 1,0.78125% 1,0.78125% 1,0.78125% 1,0.78125% 1,0.78125% 1,0.78125% 1,0.78125% 1,0.78125% 1,0.78125% 1,0.78125% 1,0.78125% 1,0.78125% 1,0.78125% 1,0.78125% 1,0.78125% 1,0.78125% 1,0.78125% 1,0.78125% 1,0.78125% 1,0.78125% 1,0.78125% 1,0.78125% 1,0.78125% 1,0.78125% 1,0.78125% 1,0.78125% 1,0.78125% 1,0.78125% 1,0.78125% 1,0.78125% 1,0.78125% 1,0.78125% 1,0.78125% 1,0.78125% 1,0.78125% 1,0.78125% 1,0.78125% 1,0.78125% 1,0.78125% 1,0.78125% 1,0.78125% 1,0.78125% 1,0.78125% 1,0.78125% 1,0.78125% 1,0.78125% 1,0.78125% 1,0.78125% 1,0.78125% 1,0.78125% 1,0.78125%"></path><path class="index23 og2" d="M0,50%l1,0.78125% 1,0.78125% 1,0.78125% 1,0.78125% 1,0.78125% 1,0.78125% 1,0.78125% 1,0.78125% 1,0.78125% 1,0.78125% 1,0.78125% 1,0.78125% 1,0.78125% 1,0.78125% 1,0.78125% 1,0.78125% 1,0.78125% 1,0.78125% 1,0.78125% 1,0.78125% 1,0.78125% 1,0.78125% 1,0.78125% 1,0.78125% 1,0.78125% 1,0.78125% 1,0.78125% 1,0.78125% 1,0.78125% 1,0.78125% 1,0.78125% 1,0.78125% 1,0.78125% 1,0.78125% 1,0.78125% 1,0.78125% 1,0.78125% 1,0.78125% 1,0.78125% 1,0.78125% 1,0.78125% 1,0.78125% 1,0.78125% 1,0.78125% 1,0.78125% 1,0.78125% 1,0.78125% 1,0.78125% 1,0.78125% 1,0.78125% 1,0.78125% 1,0.78125% 1,0.78125% 1,0.78125% 1,0.78125% 1,0.78125% 1,0.78125% 1,0.78125% 1,0.78125% 1,0.78125% 1,0.78125% 1,0.78125% 1,0.78125%"></path><path class="index24 og2" d="M0,50%l1,0.78125% 1,0.78125% 1,0.78125% 1,0.78125% 1,0.78125% 1,0.78125% 1,0.78125% 1,0.78125% 1,0.78125% 1,0.78125% 1,0.78125% 1,0.78125% 1,0.78125% 1,0.78125% 1,0.78125% 1,0.78125% 1,0.78125% 1,0.78125% 1,0.78125% 1,0.78125% 1,0.78125% 1,0.78125% 1,0.78125% 1,0.78125% 1,0.78125% 1,0.78125% 1,0.78125% 1,0.78125% 1,0.78125% 1,0.78125% 1,0.78125% 1,0.78125% 1,0.78125% 1,0.78125% 1,0.78125% 1,0.78125% 1,0.78125% 1,0.78125% 1,0.78125% 1,0.78125% 1,0.78125% 1,0.78125% 1,0.78125% 1,0.78125% 1,0.78125% 1,0.78125% 1,0.78125% 1,0.78125% 1,0.78125% 1,0.78125% 1,0.78125% 1,0.78125% 1,0.78125% 1,0.78125% 1,0.78125% 1,0.78125% 1,0.78125% 1,0.78125% 1,0.78125% 1,0.78125% 1,0.78125% 1,0.78125% 1,0.78125%"></path><path class="index25 og2" d="M0,50%l1,0.78125% 1,0.78125% 1,0.78125% 1,0.78125% 1,0.78125% 1,0.78125% 1,0.78125% 1,0.78125% 1,0.78125% 1,0.78125% 1,0.78125% 1,0.78125% 1,0.78125% 1,0.78125% 1,0.78125% 1,0.78125% 1,0.78125% 1,0.78125% 1,0.78125% 1,0.78125% 1,0.78125% 1,0.78125% 1,0.78125% 1,0.78125% 1,0.78125% 1,0.78125% 1,0.78125% 1,0.78125% 1,0.78125% 1,0.78125% 1,0.78125% 1,0.78125% 1,0.78125% 1,0.78125% 1,0.78125% 1,0.78125% 1,0.78125% 1,0.78125% 1,0.78125% 1,0.78125% 1,0.78125% 1,0.78125% 1,0.78125% 1,0.78125% 1,0.78125% 1,0.78125% 1,0.78125% 1,0.78125% 1,0.78125% 1,0.78125% 1,0.78125% 1,0.78125% 1,0.78125% 1,0.78125% 1,0.78125% 1,0.78125% 1,0.78125% 1,0.78125% 1,0.78125% 1,0.78125% 1,0.78125% 1,0.78125% 1,0.78125%"></path><path class="index26 og2" d="M0,50%l1,0.78125% 1,0.78125% 1,0.78125% 1,0.78125% 1,0.78125% 1,0.78125% 1,0.78125% 1,0.78125% 1,0.78125% 1,0.78125% 1,0.78125% 1,0.78125% 1,0.78125% 1,0.78125% 1,0.78125% 1,0.78125% 1,0.78125% 1,0.78125% 1,0.78125% 1,0.78125% 1,0.78125% 1,0.78125% 1,0.78125% 1,0.78125% 1,0.78125% 1,0.78125% 1,0.78125% 1,0.78125% 1,0.78125% 1,0.78125% 1,0.78125% 1,0.78125% 1,0.78125% 1,0.78125% 1,0.78125% 1,0.78125% 1,0.78125% 1,0.78125% 1,0.78125% 1,0.78125% 1,0.78125% 1,0.78125% 1,0.78125% 1,0.78125% 1,0.78125% 1,0.78125% 1,0.78125% 1,0.78125% 1,0.78125% 1,0.78125% 1,0.78125% 1,0.78125% 1,0.78125% 1,0.78125% 1,0.78125% 1,0.78125% 1,0.78125% 1,0.78125% 1,0.78125% 1,0.78125% 1,0.78125% 1,0.78125% 1,0.78125%"></path><path class="index27 og2" d="M0,50%l1,0.78125% 1,0.78125% 1,0.78125% 1,0.78125% 1,0.78125% 1,0.78125% 1,0.78125% 1,0.78125% 1,0.78125% 1,0.78125% 1,0.78125% 1,0.78125% 1,0.78125% 1,0.78125% 1,0.78125% 1,0.78125% 1,0.78125% 1,0.78125% 1,0.78125% 1,0.78125% 1,0.78125% 1,0.78125% 1,0.78125% 1,0.78125% 1,0.78125% 1,0.78125% 1,0.78125% 1,0.78125% 1,0.78125% 1,0.78125% 1,0.78125% 1,0.78125% 1,0.78125% 1,0.78125% 1,0.78125% 1,0.78125% 1,0.78125% 1,0.78125% 1,0.78125% 1,0.78125% 1,0.78125% 1,0.78125% 1,0.78125% 1,0.78125% 1,0.78125% 1,0.78125% 1,0.78125% 1,0.78125% 1,0.78125% 1,0.78125% 1,0.78125% 1,0.78125% 1,0.78125% 1,0.78125% 1,0.78125% 1,0.78125% 1,0.78125% 1,0.78125% 1,0.78125% 1,0.78125% 1,0.78125% 1,0.78125% 1,0.78125%"></path><path class="index28 og2" d="M0,50%l1,0.78125% 1,0.78125% 1,0.78125% 1,0.78125% 1,0.78125% 1,0.78125% 1,0.78125% 1,0.78125% 1,0.78125% 1,0.78125% 1,0.78125% 1,0.78125% 1,0.78125% 1,0.78125% 1,0.78125% 1,0.78125% 1,0.78125% 1,0.78125% 1,0.78125% 1,0.78125% 1,0.78125% 1,0.78125% 1,0.78125% 1,0.78125% 1,0.78125% 1,0.78125% 1,0.78125% 1,0.78125% 1,0.78125% 1,0.78125% 1,0.78125% 1,0.78125% 1,0.78125% 1,0.78125% 1,0.78125% 1,0.78125% 1,0.78125% 1,0.78125% 1,0.78125% 1,0.78125% 1,0.78125% 1,0.78125% 1,0.78125% 1,0.78125% 1,0.78125% 1,0.78125% 1,0.78125% 1,0.78125% 1,0.78125% 1,0.78125% 1,0.78125% 1,0.78125% 1,0.78125% 1,0.78125% 1,0.78125% 1,0.78125% 1,0.78125% 1,0.78125% 1,0.78125% 1,0.78125% 1,0.78125% 1,0.78125% 1,0.78125%"></path><path class="index29 og2" d="M0,50%l1,0.78125% 1,0.78125% 1,0.78125% 1,0.78125% 1,0.78125% 1,0.78125% 1,0.78125% 1,0.78125% 1,0.78125% 1,0.78125% 1,0.78125% 1,0.78125% 1,0.78125% 1,0.78125% 1,0.78125% 1,0.78125% 1,0.78125% 1,0.78125% 1,0.78125% 1,0.78125% 1,0.78125% 1,0.78125% 1,0.78125% 1,0.78125% 1,0.78125% 1,0.78125% 1,0.78125% 1,0.78125% 1,0.78125% 1,0.78125% 1,0.78125% 1,0.78125% 1,0.78125% 1,0.78125% 1,0.78125% 1,0.78125% 1,0.78125% 1,0.78125% 1,0.78125% 1,0.78125% 1,0.78125% 1,0.78125% 1,0.78125% 1,0.78125% 1,0.78125% 1,0.78125% 1,0.78125% 1,0.78125% 1,0.78125% 1,0.78125% 1,0.78125% 1,0.78125% 1,0.78125% 1,0.78125% 1,0.78125% 1,0.78125% 1,0.78125% 1,0.78125% 1,0.78125% 1,0.78125% 1,0.78125% 1,0.78125% 1,0.78125%"></path><path class="index30 og2" d="M0,50%l1,0.78125% 1,0.78125% 1,0.78125% 1,0.78125% 1,0.78125% 1,0.78125% 1,0.78125% 1,0.78125% 1,0.78125% 1,0.78125% 1,0.78125% 1,0.78125% 1,0.78125% 1,0.78125% 1,0.78125% 1,0.78125% 1,0.78125% 1,0.78125% 1,0.78125% 1,0.78125% 1,0.78125% 1,0.78125% 1,0.78125% 1,0.78125% 1,0.78125% 1,0.78125% 1,0.78125% 1,0.78125% 1,0.78125% 1,0.78125% 1,0.78125% 1,0.78125% 1,0.78125% 1,0.78125% 1,0.78125% 1,0.78125% 1,0.78125% 1,0.78125% 1,0.78125% 1,0.78125% 1,0.78125% 1,0.78125% 1,0.78125% 1,0.78125% 1,0.78125% 1,0.78125% 1,0.78125% 1,0.78125% 1,0.78125% 1,0.78125% 1,0.78125% 1,0.78125% 1,0.78125% 1,0.78125% 1,0.78125% 1,0.78125% 1,0.78125% 1,0.78125% 1,0.78125% 1,0.78125% 1,0.78125% 1,0.78125% 1,0.78125%"></path><path class="index31 og2" d="M0,50%l1,0.78125% 1,0.78125% 1,0.78125% 1,0.78125% 1,0.78125% 1,0.78125% 1,0.78125% 1,0.78125% 1,0.78125% 1,0.78125% 1,0.78125% 1,0.78125% 1,0.78125% 1,0.78125% 1,0.78125% 1,0.78125% 1,0.78125% 1,0.78125% 1,0.78125% 1,0.78125% 1,0.78125% 1,0.78125% 1,0.78125% 1,0.78125% 1,0.78125% 1,0.78125% 1,0.78125% 1,0.78125% 1,0.78125% 1,0.78125% 1,0.78125% 1,0.78125% 1,0.78125% 1,0.78125% 1,0.78125% 1,0.78125% 1,0.78125% 1,0.78125% 1,0.78125% 1,0.78125% 1,0.78125% 1,0.78125% 1,0.78125% 1,0.78125% 1,0.78125% 1,0.78125% 1,0.78125% 1,0.78125% 1,0.78125% 1,0.78125% 1,0.78125% 1,0.78125% 1,0.78125% 1,0.78125% 1,0.78125% 1,0.78125% 1,0.78125% 1,0.78125% 1,0.78125% 1,0.78125% 1,0.78125% 1,0.78125% 1,0.78125%"></path><path class="index32 og2" d="M0,50%l1,0.78125% 1,0.78125% 1,0.78125% 1,0.78125% 1,0.78125% 1,0.78125% 1,0.78125% 1,0.78125% 1,0.78125% 1,0.78125% 1,0.78125% 1,0.78125% 1,0.78125% 1,0.78125% 1,0.78125% 1,0.78125% 1,0.78125% 1,0.78125% 1,0.78125% 1,0.78125% 1,0.78125% 1,0.78125% 1,0.78125% 1,0.78125% 1,0.78125% 1,0.78125% 1,0.78125% 1,0.78125% 1,0.78125% 1,0.78125% 1,0.78125% 1,0.78125% 1,0.78125% 1,0.78125% 1,0.78125% 1,0.78125% 1,0.78125% 1,0.78125% 1,0.78125% 1,0.78125% 1,0.78125% 1,0.78125% 1,0.78125% 1,0.78125% 1,0.78125% 1,0.78125% 1,0.78125% 1,0.78125% 1,0.78125% 1,0.78125% 1,0.78125% 1,0.78125% 1,0.78125% 1,0.78125% 1,0.78125% 1,0.78125% 1,0.78125% 1,0.78125% 1,0.78125% 1,0.78125% 1,0.78125% 1,0.78125% 1,0.78125%"></path><path class="index33 og2" d="M0,50%l1,0.78125% 1,0.78125% 1,0.78125% 1,0.78125% 1,0.78125% 1,0.78125% 1,0.78125% 1,0.78125% 1,0.78125% 1,0.78125% 1,0.78125% 1,0.78125% 1,0.78125% 1,0.78125% 1,0.78125% 1,0.78125% 1,0.78125% 1,0.78125% 1,0.78125% 1,0.78125% 1,0.78125% 1,0.78125% 1,0.78125% 1,0.78125% 1,0.78125% 1,0.78125% 1,0.78125% 1,0.78125% 1,0.78125% 1,0.78125% 1,0.78125% 1,0.78125% 1,0.78125% 1,0.78125% 1,0.78125% 1,0.78125% 1,0.78125% 1,0.78125% 1,0.78125% 1,0.78125% 1,0.78125% 1,0.78125% 1,0.78125% 1,0.78125% 1,0.78125% 1,0.78125% 1,0.78125% 1,0.78125% 1,0.78125% 1,0.78125% 1,0.78125% 1,0.78125% 1,0.78125% 1,0.78125% 1,0.78125% 1,0.78125% 1,0.78125% 1,0.78125% 1,0.78125% 1,0.78125% 1,0.78125% 1,0.78125% 1,0.78125%"></path><path class="index34 og2" d="M0,50%l1,0.78125% 1,0.78125% 1,0.78125% 1,0.78125% 1,0.78125% 1,0.78125% 1,0.78125% 1,0.78125% 1,0.78125% 1,0.78125% 1,0.78125% 1,0.78125% 1,0.78125% 1,0.78125% 1,0.78125% 1,0.78125% 1,0.78125% 1,0.78125% 1,0.78125% 1,0.78125% 1,0.78125% 1,0.78125% 1,0.78125% 1,0.78125% 1,0.78125% 1,0.78125% 1,0.78125% 1,0.78125% 1,0.78125% 1,0.78125% 1,0.78125% 1,0.78125% 1,0.78125% 1,0.78125% 1,0.78125% 1,0.78125% 1,0.78125% 1,0.78125% 1,0.78125% 1,0.78125% 1,0.78125% 1,0.78125% 1,0.78125% 1,0.78125% 1,0.78125% 1,0.78125% 1,0.78125% 1,0.78125% 1,0.78125% 1,0.78125% 1,0.78125% 1,0.78125% 1,0.78125% 1,0.78125% 1,0.78125% 1,0.78125% 1,0.78125% 1,0.78125% 1,0.78125% 1,0.78125% 1,0.78125% 1,0.78125% 1,0.78125%"></path><path class="index35 og2" d="M0,50%l1,0.78125% 1,0.78125% 1,0.78125% 1,0.78125% 1,0.78125% 1,0.78125% 1,0.78125% 1,0.78125% 1,0.78125% 1,0.78125% 1,0.78125% 1,0.78125% 1,0.78125% 1,0.78125% 1,0.78125% 1,0.78125% 1,0.78125% 1,0.78125% 1,0.78125% 1,0.78125% 1,0.78125% 1,0.78125% 1,0.78125% 1,0.78125% 1,0.78125% 1,0.78125% 1,0.78125% 1,0.78125% 1,0.78125% 1,0.78125% 1,0.78125% 1,0.78125% 1,0.78125% 1,0.78125% 1,0.78125% 1,0.78125% 1,0.78125% 1,0.78125% 1,0.78125% 1,0.78125% 1,0.78125% 1,0.78125% 1,0.78125% 1,0.78125% 1,0.78125% 1,0.78125% 1,0.78125% 1,0.78125% 1,0.78125% 1,0.78125% 1,0.78125% 1,0.78125% 1,0.78125% 1,0.78125% 1,0.78125% 1,0.78125% 1,0.78125% 1,0.78125% 1,0.78125% 1,0.78125% 1,0.78125% 1,0.78125% 1,0.78125%"></path><path class="index36 og2" d="M0,50%l1,0.78125% 1,0.78125% 1,0.78125% 1,0.78125% 1,0.78125% 1,0.78125% 1,0.78125% 1,0.78125% 1,0.78125% 1,0.78125% 1,0.78125% 1,0.78125% 1,0.78125% 1,0.78125% 1,0.78125% 1,0.78125% 1,0.78125% 1,0.78125% 1,0.78125% 1,0.78125% 1,0.78125% 1,0.78125% 1,0.78125% 1,0.78125% 1,0.78125% 1,0.78125% 1,0.78125% 1,0.78125% 1,0.78125% 1,0.78125% 1,0.78125% 1,0.78125% 1,0.78125% 1,0.78125% 1,0.78125% 1,0.78125% 1,0.78125% 1,0.78125% 1,0.78125% 1,0.78125% 1,0.78125% 1,0.78125% 1,0.78125% 1,0.78125% 1,0.78125% 1,0.78125% 1,0.78125% 1,0.78125% 1,0.78125% 1,0.78125% 1,0.78125% 1,0.78125% 1,0.78125% 1,0.78125% 1,0.78125% 1,0.78125% 1,0.78125% 1,0.78125% 1,0.78125% 1,0.78125% 1,0.78125% 1,0.78125% 1,0.78125%"></path><path class="index37 og2" d="M0,50%l1,0.78125% 1,0.78125% 1,0.78125% 1,0.78125% 1,0.78125% 1,0.78125% 1,0.78125% 1,0.78125% 1,0.78125% 1,0.78125% 1,0.78125% 1,0.78125% 1,0.78125% 1,0.78125% 1,0.78125% 1,0.78125% 1,0.78125% 1,0.78125% 1,0.78125% 1,0.78125% 1,0.78125% 1,0.78125% 1,0.78125% 1,0.78125% 1,0.78125% 1,0.78125% 1,0.78125% 1,0.78125% 1,0.78125% 1,0.78125% 1,0.78125% 1,0.78125% 1,0.78125% 1,0.78125% 1,0.78125% 1,0.78125% 1,0.78125% 1,0.78125% 1,0.78125% 1,0.78125% 1,0.78125% 1,0.78125% 1,0.78125% 1,0.78125% 1,0.78125% 1,0.78125% 1,0.78125% 1,0.78125% 1,0.78125% 1,0.78125% 1,0.78125% 1,0.78125% 1,0.78125% 1,0.78125% 1,0.78125% 1,0.78125% 1,0.78125% 1,0.78125% 1,0.78125% 1,0.78125% 1,0.78125% 1,0.78125% 1,0.78125%"></path><path class="index38 og2" d="M0,50%l1,0.78125% 1,0.78125% 1,0.78125% 1,0.78125% 1,0.78125% 1,0.78125% 1,0.78125% 1,0.78125% 1,0.78125% 1,0.78125% 1,0.78125% 1,0.78125% 1,0.78125% 1,0.78125% 1,0.78125% 1,0.78125% 1,0.78125% 1,0.78125% 1,0.78125% 1,0.78125% 1,0.78125% 1,0.78125% 1,0.78125% 1,0.78125% 1,0.78125% 1,0.78125% 1,0.78125% 1,0.78125% 1,0.78125% 1,0.78125% 1,0.78125% 1,0.78125% 1,0.78125% 1,0.78125% 1,0.78125% 1,0.78125% 1,0.78125% 1,0.78125% 1,0.78125% 1,0.78125% 1,0.78125% 1,0.78125% 1,0.78125% 1,0.78125% 1,0.78125% 1,0.78125% 1,0.78125% 1,0.78125% 1,0.78125% 1,0.78125% 1,0.78125% 1,0.78125% 1,0.78125% 1,0.78125% 1,0.78125% 1,0.78125% 1,0.78125% 1,0.78125% 1,0.78125% 1,0.78125% 1,0.78125% 1,0.78125% 1,0.78125%"></path><path class="index39 og2" d="M0,50%l1,0.78125% 1,0.78125% 1,0.78125% 1,0.78125% 1,0.78125% 1,0.78125% 1,0.78125% 1,0.78125% 1,0.78125% 1,0.78125% 1,0.78125% 1,0.78125% 1,0.78125% 1,0.78125% 1,0.78125% 1,0.78125% 1,0.78125% 1,0.78125% 1,0.78125% 1,0.78125% 1,0.78125% 1,0.78125% 1,0.78125% 1,0.78125% 1,0.78125% 1,0.78125% 1,0.78125% 1,0.78125% 1,0.78125% 1,0.78125% 1,0.78125% 1,0.78125% 1,0.78125% 1,0.78125% 1,0.78125% 1,0.78125% 1,0.78125% 1,0.78125% 1,0.78125% 1,0.78125% 1,0.78125% 1,0.78125% 1,0.78125% 1,0.78125% 1,0.78125% 1,0.78125% 1,0.78125% 1,0.78125% 1,0.78125% 1,0.78125% 1,0.78125% 1,0.78125% 1,0.78125% 1,0.78125% 1,0.78125% 1,0.78125% 1,0.78125% 1,0.78125% 1,0.78125% 1,0.78125% 1,0.78125% 1,0.78125% 1,0.78125%"></path><path class="index40 og2" d="M0,50%l1,0.78125% 1,0.78125% 1,0.78125% 1,0.78125% 1,0.78125% 1,0.78125% 1,0.78125% 1,0.78125% 1,0.78125% 1,0.78125% 1,0.78125% 1,0.78125% 1,0.78125% 1,0.78125% 1,0.78125% 1,0.78125% 1,0.78125% 1,0.78125% 1,0.78125% 1,0.78125% 1,0.78125% 1,0.78125% 1,0.78125% 1,0.78125% 1,0.78125% 1,0.78125% 1,0.78125% 1,0.78125% 1,0.78125% 1,0.78125% 1,0.78125% 1,0.78125% 1,0.78125% 1,0.78125% 1,0.78125% 1,0.78125% 1,0.78125% 1,0.78125% 1,0.78125% 1,0.78125% 1,0.78125% 1,0.78125% 1,0.78125% 1,0.78125% 1,0.78125% 1,0.78125% 1,0.78125% 1,0.78125% 1,0.78125% 1,0.78125% 1,0.78125% 1,0.78125% 1,0.78125% 1,0.78125% 1,0.78125% 1,0.78125% 1,0.78125% 1,0.78125% 1,0.78125% 1,0.78125% 1,0.78125% 1,0.78125% 1,0.78125%"></path><path class="index41 og2" d="M0,50%l1,0.78125% 1,0.78125% 1,0.78125% 1,0.78125% 1,0.78125% 1,0.78125% 1,0.78125% 1,0.78125% 1,0.78125% 1,0.78125% 1,0.78125% 1,0.78125% 1,0.78125% 1,0.78125% 1,0.78125% 1,0.78125% 1,0.78125% 1,0.78125% 1,0.78125% 1,0.78125% 1,0.78125% 1,0.78125% 1,0.78125% 1,0.78125% 1,0.78125% 1,0.78125% 1,0.78125% 1,0.78125% 1,0.78125% 1,0.78125% 1,0.78125% 1,0.78125% 1,0.78125% 1,0.78125% 1,0.78125% 1,0.78125% 1,0.78125% 1,0.78125% 1,0.78125% 1,0.78125% 1,0.78125% 1,0.78125% 1,0.78125% 1,0.78125% 1,0.78125% 1,0.78125% 1,0.78125% 1,0.78125% 1,0.78125% 1,0.78125% 1,0.78125% 1,0.78125% 1,0.78125% 1,0.78125% 1,0.78125% 1,0.78125% 1,0.78125% 1,0.78125% 1,0.78125% 1,0.78125% 1,0.78125% 1,0.78125% 1,0.78125%"></path><path class="index42 og2" d="M0,50%l1,0.78125% 1,0.78125% 1,0.78125% 1,0.78125% 1,0.78125% 1,0.78125% 1,0.78125% 1,0.78125% 1,0.78125% 1,0.78125% 1,0.78125% 1,0.78125% 1,0.78125% 1,0.78125% 1,0.78125% 1,0.78125% 1,0.78125% 1,0.78125% 1,0.78125% 1,0.78125% 1,0.78125% 1,0.78125% 1,0.78125% 1,0.78125% 1,0.78125% 1,0.78125% 1,0.78125% 1,0.78125% 1,0.78125% 1,0.78125% 1,0.78125% 1,0.78125% 1,0.78125% 1,0.78125% 1,0.78125% 1,0.78125% 1,0.78125% 1,0.78125% 1,0.78125% 1,0.78125% 1,0.78125% 1,0.78125% 1,0.78125% 1,0.78125% 1,0.78125% 1,0.78125% 1,0.78125% 1,0.78125% 1,0.78125% 1,0.78125% 1,0.78125% 1,0.78125% 1,0.78125% 1,0.78125% 1,0.78125% 1,0.78125% 1,0.78125% 1,0.78125% 1,0.78125% 1,0.78125% 1,0.78125% 1,0.78125% 1,0.78125%"></path><path class="index43 og2" d="M0,50%l1,0.78125% 1,0.78125% 1,0.78125% 1,0.78125% 1,0.78125% 1,0.78125% 1,0.78125% 1,0.78125% 1,0.78125% 1,0.78125% 1,0.78125% 1,0.78125% 1,0.78125% 1,0.78125% 1,0.78125% 1,0.78125% 1,0.78125% 1,0.78125% 1,0.78125% 1,0.78125% 1,0.78125% 1,0.78125% 1,0.78125% 1,0.78125% 1,0.78125% 1,0.78125% 1,0.78125% 1,0.78125% 1,0.78125% 1,0.78125% 1,0.78125% 1,0.78125% 1,0.78125% 1,0.78125% 1,0.78125% 1,0.78125% 1,0.78125% 1,0.78125% 1,0.78125% 1,0.78125% 1,0.78125% 1,0.78125% 1,0.78125% 1,0.78125% 1,0.78125% 1,0.78125% 1,0.78125% 1,0.78125% 1,0.78125% 1,0.78125% 1,0.78125% 1,0.78125% 1,0.78125% 1,0.78125% 1,0.78125% 1,0.78125% 1,0.78125% 1,0.78125% 1,0.78125% 1,0.78125% 1,0.78125% 1,0.78125% 1,0.78125%"></path><path class="index44 og2" d="M0,50%l1,0.78125% 1,0.78125% 1,0.78125% 1,0.78125% 1,0.78125% 1,0.78125% 1,0.78125% 1,0.78125% 1,0.78125% 1,0.78125% 1,0.78125% 1,0.78125% 1,0.78125% 1,0.78125% 1,0.78125% 1,0.78125% 1,0.78125% 1,0.78125% 1,0.78125% 1,0.78125% 1,0.78125% 1,0.78125% 1,0.78125% 1,0.78125% 1,0.78125% 1,0.78125% 1,0.78125% 1,0.78125% 1,0.78125% 1,0.78125% 1,0.78125% 1,0.78125% 1,0.78125% 1,0.78125% 1,0.78125% 1,0.78125% 1,0.78125% 1,0.78125% 1,0.78125% 1,0.78125% 1,0.78125% 1,0.78125% 1,0.78125% 1,0.78125% 1,0.78125% 1,0.78125% 1,0.78125% 1,0.78125% 1,0.78125% 1,0.78125% 1,0.78125% 1,0.78125% 1,0.78125% 1,0.78125% 1,0.78125% 1,0.78125% 1,0.78125% 1,0.78125% 1,0.78125% 1,0.78125% 1,0.78125% 1,0.78125% 1,0.78125%"></path><path class="index45 og2" d="M0,50%l1,0.78125% 1,0.78125% 1,0.78125% 1,0.78125% 1,0.78125% 1,0.78125% 1,0.78125% 1,0.78125% 1,0.78125% 1,0.78125% 1,0.78125% 1,0.78125% 1,0.78125% 1,0.78125% 1,0.78125% 1,0.78125% 1,0.78125% 1,0.78125% 1,0.78125% 1,0.78125% 1,0.78125% 1,0.78125% 1,0.78125% 1,0.78125% 1,0.78125% 1,0.78125% 1,0.78125% 1,0.78125% 1,0.78125% 1,0.78125% 1,0.78125% 1,0.78125% 1,0.78125% 1,0.78125% 1,0.78125% 1,0.78125% 1,0.78125% 1,0.78125% 1,0.78125% 1,0.78125% 1,0.78125% 1,0.78125% 1,0.78125% 1,0.78125% 1,0.78125% 1,0.78125% 1,0.78125% 1,0.78125% 1,0.78125% 1,0.78125% 1,0.78125% 1,0.78125% 1,0.78125% 1,0.78125% 1,0.78125% 1,0.78125% 1,0.78125% 1,0.78125% 1,0.78125% 1,0.78125% 1,0.78125% 1,0.78125% 1,0.78125%"></path><path class="index46 og2" d="M0,50%l1,0.78125% 1,0.78125% 1,0.78125% 1,0.78125% 1,0.78125% 1,0.78125% 1,0.78125% 1,0.78125% 1,0.78125% 1,0.78125% 1,0.78125% 1,0.78125% 1,0.78125% 1,0.78125% 1,0.78125% 1,0.78125% 1,0.78125% 1,0.78125% 1,0.78125% 1,0.78125% 1,0.78125% 1,0.78125% 1,0.78125% 1,0.78125% 1,0.78125% 1,0.78125% 1,0.78125% 1,0.78125% 1,0.78125% 1,0.78125% 1,0.78125% 1,0.78125% 1,0.78125% 1,0.78125% 1,0.78125% 1,0.78125% 1,0.78125% 1,0.78125% 1,0.78125% 1,0.78125% 1,0.78125% 1,0.78125% 1,0.78125% 1,0.78125% 1,0.78125% 1,0.78125% 1,0.78125% 1,0.78125% 1,0.78125% 1,0.78125% 1,0.78125% 1,0.78125% 1,0.78125% 1,0.78125% 1,0.78125% 1,0.78125% 1,0.78125% 1,0.78125% 1,0.78125% 1,0.78125% 1,0.78125% 1,0.78125% 1,0.78125%"></path><path class="index47 og2" d="M0,50%l1,0.78125% 1,0.78125% 1,0.78125% 1,0.78125% 1,0.78125% 1,0.78125% 1,0.78125% 1,0.78125% 1,0.78125% 1,0.78125% 1,0.78125% 1,0.78125% 1,0.78125% 1,0.78125% 1,0.78125% 1,0.78125% 1,0.78125% 1,0.78125% 1,0.78125% 1,0.78125% 1,0.78125% 1,0.78125% 1,0.78125% 1,0.78125% 1,0.78125% 1,0.78125% 1,0.78125% 1,0.78125% 1,0.78125% 1,0.78125% 1,0.78125% 1,0.78125% 1,0.78125% 1,0.78125% 1,0.78125% 1,0.78125% 1,0.78125% 1,0.78125% 1,0.78125% 1,0.78125% 1,0.78125% 1,0.78125% 1,0.78125% 1,0.78125% 1,0.78125% 1,0.78125% 1,0.78125% 1,0.78125% 1,0.78125% 1,0.78125% 1,0.78125% 1,0.78125% 1,0.78125% 1,0.78125% 1,0.78125% 1,0.78125% 1,0.78125% 1,0.78125% 1,0.78125% 1,0.78125% 1,0.78125% 1,0.78125% 1,0.78125%"></path><path class="index48 og2" d="M0,50%l1,0.78125% 1,0.78125% 1,0.78125% 1,0.78125% 1,0.78125% 1,0.78125% 1,0.78125% 1,0.78125% 1,0.78125% 1,0.78125% 1,0.78125% 1,0.78125% 1,0.78125% 1,0.78125% 1,0.78125% 1,0.78125% 1,0.78125% 1,0.78125% 1,0.78125% 1,0.78125% 1,0.78125% 1,0.78125% 1,0.78125% 1,0.78125% 1,0.78125% 1,0.78125% 1,0.78125% 1,0.78125% 1,0.78125% 1,0.78125% 1,0.78125% 1,0.78125% 1,0.78125% 1,0.78125% 1,0.78125% 1,0.78125% 1,0.78125% 1,0.78125% 1,0.78125% 1,0.78125% 1,0.78125% 1,0.78125% 1,0.78125% 1,0.78125% 1,0.78125% 1,0.78125% 1,0.78125% 1,0.78125% 1,0.78125% 1,0.78125% 1,0.78125% 1,0.78125% 1,0.78125% 1,0.78125% 1,0.78125% 1,0.78125% 1,0.78125% 1,0.78125% 1,0.78125% 1,0.78125% 1,0.78125% 1,0.78125% 1,0.78125%"></path><path class="index49 og2" d="M0,50%l1,0.78125% 1,0.78125% 1,0.78125% 1,0.78125% 1,0.78125% 1,0.78125% 1,0.78125% 1,0.78125% 1,0.78125% 1,0.78125% 1,0.78125% 1,0.78125% 1,0.78125% 1,0.78125% 1,0.78125% 1,0.78125% 1,0.78125% 1,0.78125% 1,0.78125% 1,0.78125% 1,0.78125% 1,0.78125% 1,0.78125% 1,0.78125% 1,0.78125% 1,0.78125% 1,0.78125% 1,0.78125% 1,0.78125% 1,0.78125% 1,0.78125% 1,0.78125% 1,0.78125% 1,0.78125% 1,0.78125% 1,0.78125% 1,0.78125% 1,0.78125% 1,0.78125% 1,0.78125% 1,0.78125% 1,0.78125% 1,0.78125% 1,0.78125% 1,0.78125% 1,0.78125% 1,0.78125% 1,0.78125% 1,0.78125% 1,0.78125% 1,0.78125% 1,0.78125% 1,0.78125% 1,0.78125% 1,0.78125% 1,0.78125% 1,0.78125% 1,0.78125% 1,0.78125% 1,0.78125% 1,0.78125% 1,0.78125% 1,0.78125%"></path><path class="index50 og2" d="M0,50%l1,0.78125% 1,0.78125% 1,0.78125% 1,0.78125% 1,0.78125% 1,0.78125% 1,0.78125% 1,0.78125% 1,0.78125% 1,0.78125% 1,0.78125% 1,0.78125% 1,0.78125% 1,0.78125% 1,0.78125% 1,0.78125% 1,0.78125% 1,0.78125% 1,0.78125% 1,0.78125% 1,0.78125% 1,0.78125% 1,0.78125% 1,0.78125% 1,0.78125% 1,0.78125% 1,0.78125% 1,0.78125% 1,0.78125% 1,0.78125% 1,0.78125% 1,0.78125% 1,0.78125% 1,0.78125% 1,0.78125% 1,0.78125% 1,0.78125% 1,0.78125% 1,0.78125% 1,0.78125% 1,0.78125% 1,0.78125% 1,0.78125% 1,0.78125% 1,0.78125% 1,0.78125% 1,0.78125% 1,0.78125% 1,0.78125% 1,0.78125% 1,0.78125% 1,0.78125% 1,0.78125% 1,0.78125% 1,0.78125% 1,0.78125% 1,0.78125% 1,0.78125% 1,0.78125% 1,0.78125% 1,0.78125% 1,0.78125% 1,0.78125%"></path><path class="index51 og2" d="M0,50%l1,0.78125% 1,0.78125% 1,0.78125% 1,0.78125% 1,0.78125% 1,0.78125% 1,0.78125% 1,0.78125% 1,0.78125% 1,0.78125% 1,0.78125% 1,0.78125% 1,0.78125% 1,0.78125% 1,0.78125% 1,0.78125% 1,0.78125% 1,0.78125% 1,0.78125% 1,0.78125% 1,0.78125% 1,0.78125% 1,0.78125% 1,0.78125% 1,0.78125% 1,0.78125% 1,0.78125% 1,0.78125% 1,0.78125% 1,0.78125% 1,0.78125% 1,0.78125% 1,0.78125% 1,0.78125% 1,0.78125% 1,0.78125% 1,0.78125% 1,0.78125% 1,0.78125% 1,0.78125% 1,0.78125% 1,0.78125% 1,0.78125% 1,0.78125% 1,0.78125% 1,0.78125% 1,0.78125% 1,0.78125% 1,0.78125% 1,0.78125% 1,0.78125% 1,0.78125% 1,0.78125% 1,0.78125% 1,0.78125% 1,0.78125% 1,0.78125% 1,0.78125% 1,0.78125% 1,0.78125% 1,0.78125% 1,0.78125% 1,0.78125%"></path><path class="index52 og2" d="M0,50%l1,0.78125% 1,0.78125% 1,0.78125% 1,0.78125% 1,0.78125% 1,0.78125% 1,0.78125% 1,0.78125% 1,0.78125% 1,0.78125% 1,0.78125% 1,0.78125% 1,0.78125% 1,0.78125% 1,0.78125% 1,0.78125% 1,0.78125% 1,0.78125% 1,0.78125% 1,0.78125% 1,0.78125% 1,0.78125% 1,0.78125% 1,0.78125% 1,0.78125% 1,0.78125% 1,0.78125% 1,0.78125% 1,0.78125% 1,0.78125% 1,0.78125% 1,0.78125% 1,0.78125% 1,0.78125% 1,0.78125% 1,0.78125% 1,0.78125% 1,0.78125% 1,0.78125% 1,0.78125% 1,0.78125% 1,0.78125% 1,0.78125% 1,0.78125% 1,0.78125% 1,0.78125% 1,0.78125% 1,0.78125% 1,0.78125% 1,0.78125% 1,0.78125% 1,0.78125% 1,0.78125% 1,0.78125% 1,0.78125% 1,0.78125% 1,0.78125% 1,0.78125% 1,0.78125% 1,0.78125% 1,0.78125% 1,0.78125% 1,0.78125%"></path><path class="index53 og2" d="M0,50%l1,0.78125% 1,0.78125% 1,0.78125% 1,0.78125% 1,0.78125% 1,0.78125% 1,0.78125% 1,0.78125% 1,0.78125% 1,0.78125% 1,0.78125% 1,0.78125% 1,0.78125% 1,0.78125% 1,0.78125% 1,0.78125% 1,0.78125% 1,0.78125% 1,0.78125% 1,0.78125% 1,0.78125% 1,0.78125% 1,0.78125% 1,0.78125% 1,0.78125% 1,0.78125% 1,0.78125% 1,0.78125% 1,0.78125% 1,0.78125% 1,0.78125% 1,0.78125% 1,0.78125% 1,0.78125% 1,0.78125% 1,0.78125% 1,0.78125% 1,0.78125% 1,0.78125% 1,0.78125% 1,0.78125% 1,0.78125% 1,0.78125% 1,0.78125% 1,0.78125% 1,0.78125% 1,0.78125% 1,0.78125% 1,0.78125% 1,0.78125% 1,0.78125% 1,0.78125% 1,0.78125% 1,0.78125% 1,0.78125% 1,0.78125% 1,0.78125% 1,0.78125% 1,0.78125% 1,0.78125% 1,0.78125% 1,0.78125% 1,0.78125%"></path><path class="index54 og2" d="M0,50%l1,0.78125% 1,0.78125% 1,0.78125% 1,0.78125% 1,0.78125% 1,0.78125% 1,0.78125% 1,0.78125% 1,0.78125% 1,0.78125% 1,0.78125% 1,0.78125% 1,0.78125% 1,0.78125% 1,0.78125% 1,0.78125% 1,0.78125% 1,0.78125% 1,0.78125% 1,0.78125% 1,0.78125% 1,0.78125% 1,0.78125% 1,0.78125% 1,0.78125% 1,0.78125% 1,0.78125% 1,0.78125% 1,0.78125% 1,0.78125% 1,0.78125% 1,0.78125% 1,0.78125% 1,0.78125% 1,0.78125% 1,0.78125% 1,0.78125% 1,0.78125% 1,0.78125% 1,0.78125% 1,0.78125% 1,0.78125% 1,0.78125% 1,0.78125% 1,0.78125% 1,0.78125% 1,0.78125% 1,0.78125% 1,0.78125% 1,0.78125% 1,0.78125% 1,0.78125% 1,0.78125% 1,0.78125% 1,0.78125% 1,0.78125% 1,0.78125% 1,0.78125% 1,0.78125% 1,0.78125% 1,0.78125% 1,0.78125% 1,0.78125%"></path><path class="index55 og2" d="M0,50%l1,0.78125% 1,0.78125% 1,0.78125% 1,0.78125% 1,0.78125% 1,0.78125% 1,0.78125% 1,0.78125% 1,0.78125% 1,0.78125% 1,0.78125% 1,0.78125% 1,0.78125% 1,0.78125% 1,0.78125% 1,0.78125% 1,0.78125% 1,0.78125% 1,0.78125% 1,0.78125% 1,0.78125% 1,0.78125% 1,0.78125% 1,0.78125% 1,0.78125% 1,0.78125% 1,0.78125% 1,0.78125% 1,0.78125% 1,0.78125% 1,0.78125% 1,0.78125% 1,0.78125% 1,0.78125% 1,0.78125% 1,0.78125% 1,0.78125% 1,0.78125% 1,0.78125% 1,0.78125% 1,0.78125% 1,0.78125% 1,0.78125% 1,0.78125% 1,0.78125% 1,0.78125% 1,0.78125% 1,0.78125% 1,0.78125% 1,0.78125% 1,0.78125% 1,0.78125% 1,0.78125% 1,0.78125% 1,0.78125% 1,0.78125% 1,0.78125% 1,0.78125% 1,0.78125% 1,0.78125% 1,0.78125% 1,0.78125% 1,0.78125%"></path><path class="index56 og2" d="M0,50%l1,0.78125% 1,0.78125% 1,0.78125% 1,0.78125% 1,0.78125% 1,0.78125% 1,0.78125% 1,0.78125% 1,0.78125% 1,0.78125% 1,0.78125% 1,0.78125% 1,0.78125% 1,0.78125% 1,0.78125% 1,0.78125% 1,0.78125% 1,0.78125% 1,0.78125% 1,0.78125% 1,0.78125% 1,0.78125% 1,0.78125% 1,0.78125% 1,0.78125% 1,0.78125% 1,0.78125% 1,0.78125% 1,0.78125% 1,0.78125% 1,0.78125% 1,0.78125% 1,0.78125% 1,0.78125% 1,0.78125% 1,0.78125% 1,0.78125% 1,0.78125% 1,0.78125% 1,0.78125% 1,0.78125% 1,0.78125% 1,0.78125% 1,0.78125% 1,0.78125% 1,0.78125% 1,0.78125% 1,0.78125% 1,0.78125% 1,0.78125% 1,0.78125% 1,0.78125% 1,0.78125% 1,0.78125% 1,0.78125% 1,0.78125% 1,0.78125% 1,0.78125% 1,0.78125% 1,0.78125% 1,0.78125% 1,0.78125% 1,0.78125%"></path><path class="index57 og2" d="M0,50%l1,0.78125% 1,0.78125% 1,0.78125% 1,0.78125% 1,0.78125% 1,0.78125% 1,0.78125% 1,0.78125% 1,0.78125% 1,0.78125% 1,0.78125% 1,0.78125% 1,0.78125% 1,0.78125% 1,0.78125% 1,0.78125% 1,0.78125% 1,0.78125% 1,0.78125% 1,0.78125% 1,0.78125% 1,0.78125% 1,0.78125% 1,0.78125% 1,0.78125% 1,0.78125% 1,0.78125% 1,0.78125% 1,0.78125% 1,0.78125% 1,0.78125% 1,0.78125% 1,0.78125% 1,0.78125% 1,0.78125% 1,0.78125% 1,0.78125% 1,0.78125% 1,0.78125% 1,0.78125% 1,0.78125% 1,0.78125% 1,0.78125% 1,0.78125% 1,0.78125% 1,0.78125% 1,0.78125% 1,0.78125% 1,0.78125% 1,0.78125% 1,0.78125% 1,0.78125% 1,0.78125% 1,0.78125% 1,0.78125% 1,0.78125% 1,0.78125% 1,0.78125% 1,0.78125% 1,0.78125% 1,0.78125% 1,0.78125% 1,0.78125%"></path><path class="index58 og2" d="M0,50%l1,0.78125% 1,0.78125% 1,0.78125% 1,0.78125% 1,0.78125% 1,0.78125% 1,0.78125% 1,0.78125% 1,0.78125% 1,0.78125% 1,0.78125% 1,0.78125% 1,0.78125% 1,0.78125% 1,0.78125% 1,0.78125% 1,0.78125% 1,0.78125% 1,0.78125% 1,0.78125% 1,0.78125% 1,0.78125% 1,0.78125% 1,0.78125% 1,0.78125% 1,0.78125% 1,0.78125% 1,0.78125% 1,0.78125% 1,0.78125% 1,0.78125% 1,0.78125% 1,0.78125% 1,0.78125% 1,0.78125% 1,0.78125% 1,0.78125% 1,0.78125% 1,0.78125% 1,0.78125% 1,0.78125% 1,0.78125% 1,0.78125% 1,0.78125% 1,0.78125% 1,0.78125% 1,0.78125% 1,0.78125% 1,0.78125% 1,0.78125% 1,0.78125% 1,0.78125% 1,0.78125% 1,0.78125% 1,0.78125% 1,0.78125% 1,0.78125% 1,0.78125% 1,0.78125% 1,0.78125% 1,0.78125% 1,0.78125% 1,0.78125%"></path><path class="index59 og2" d="M0,50%l1,0.78125% 1,0.78125% 1,0.78125% 1,0.78125% 1,0.78125% 1,0.78125% 1,0.78125% 1,0.78125% 1,0.78125% 1,0.78125% 1,0.78125% 1,0.78125% 1,0.78125% 1,0.78125% 1,0.78125% 1,0.78125% 1,0.78125% 1,0.78125% 1,0.78125% 1,0.78125% 1,0.78125% 1,0.78125% 1,0.78125% 1,0.78125% 1,0.78125% 1,0.78125% 1,0.78125% 1,0.78125% 1,0.78125% 1,0.78125% 1,0.78125% 1,0.78125% 1,0.78125% 1,0.78125% 1,0.78125% 1,0.78125% 1,0.78125% 1,0.78125% 1,0.78125% 1,0.78125% 1,0.78125% 1,0.78125% 1,0.78125% 1,0.78125% 1,0.78125% 1,0.78125% 1,0.78125% 1,0.78125% 1,0.78125% 1,0.78125% 1,0.78125% 1,0.78125% 1,0.78125% 1,0.78125% 1,0.78125% 1,0.78125% 1,0.78125% 1,0.78125% 1,0.78125% 1,0.78125% 1,0.78125% 1,0.78125% 1,0.78125%"></path><path class="index60 og2" d="M0,50%l1,0.78125% 1,0.78125% 1,0.78125% 1,0.78125% 1,0.78125% 1,0.78125% 1,0.78125% 1,0.78125% 1,0.78125% 1,0.78125% 1,0.78125% 1,0.78125% 1,0.78125% 1,0.78125% 1,0.78125% 1,0.78125% 1,0.78125% 1,0.78125% 1,0.78125% 1,0.78125% 1,0.78125% 1,0.78125% 1,0.78125% 1,0.78125% 1,0.78125% 1,0.78125% 1,0.78125% 1,0.78125% 1,0.78125% 1,0.78125% 1,0.78125% 1,0.78125% 1,0.78125% 1,0.78125% 1,0.78125% 1,0.78125% 1,0.78125% 1,0.78125% 1,0.78125% 1,0.78125% 1,0.78125% 1,0.78125% 1,0.78125% 1,0.78125% 1,0.78125% 1,0.78125% 1,0.78125% 1,0.78125% 1,0.78125% 1,0.78125% 1,0.78125% 1,0.78125% 1,0.78125% 1,0.78125% 1,0.78125% 1,0.78125% 1,0.78125% 1,0.78125% 1,0.78125% 1,0.78125% 1,0.78125% 1,0.78125% 1,0.78125%"></path><path class="index61 og2" d="M0,50%l1,0.78125% 1,0.78125% 1,0.78125% 1,0.78125% 1,0.78125% 1,0.78125% 1,0.78125% 1,0.78125% 1,0.78125% 1,0.78125% 1,0.78125% 1,0.78125% 1,0.78125% 1,0.78125% 1,0.78125% 1,0.78125% 1,0.78125% 1,0.78125% 1,0.78125% 1,0.78125% 1,0.78125% 1,0.78125% 1,0.78125% 1,0.78125% 1,0.78125% 1,0.78125% 1,0.78125% 1,0.78125% 1,0.78125% 1,0.78125% 1,0.78125% 1,0.78125% 1,0.78125% 1,0.78125% 1,0.78125% 1,0.78125% 1,0.78125% 1,0.78125% 1,0.78125% 1,0.78125% 1,0.78125% 1,0.78125% 1,0.78125% 1,0.78125% 1,0.78125% 1,0.78125% 1,0.78125% 1,0.78125% 1,0.78125% 1,0.78125% 1,0.78125% 1,0.78125% 1,0.78125% 1,0.78125% 1,0.78125% 1,0.78125% 1,0.78125% 1,0.78125% 1,0.78125% 1,0.78125% 1,0.78125% 1,0.78125% 1,0.78125%"></path><path class="index62 og2" d="M0,50%l1,0.78125% 1,0.78125% 1,0.78125% 1,0.78125% 1,0.78125% 1,0.78125% 1,0.78125% 1,0.78125% 1,0.78125% 1,0.78125% 1,0.78125% 1,0.78125% 1,0.78125% 1,0.78125% 1,0.78125% 1,0.78125% 1,0.78125% 1,0.78125% 1,0.78125% 1,0.78125% 1,0.78125% 1,0.78125% 1,0.78125% 1,0.78125% 1,0.78125% 1,0.78125% 1,0.78125% 1,0.78125% 1,0.78125% 1,0.78125% 1,0.78125% 1,0.78125% 1,0.78125% 1,0.78125% 1,0.78125% 1,0.78125% 1,0.78125% 1,0.78125% 1,0.78125% 1,0.78125% 1,0.78125% 1,0.78125% 1,0.78125% 1,0.78125% 1,0.78125% 1,0.78125% 1,0.78125% 1,0.78125% 1,0.78125% 1,0.78125% 1,0.78125% 1,0.78125% 1,0.78125% 1,0.78125% 1,0.78125% 1,0.78125% 1,0.78125% 1,0.78125% 1,0.78125% 1,0.78125% 1,0.78125% 1,0.78125% 1,0.78125%"></path><path class="index63 og2" d="M0,50%l1,0.78125% 1,0.78125% 1,0.78125% 1,0.78125% 1,0.78125% 1,0.78125% 1,0.78125% 1,0.78125% 1,0.78125% 1,0.78125% 1,0.78125% 1,0.78125% 1,0.78125% 1,0.78125% 1,0.78125% 1,0.78125% 1,0.78125% 1,0.78125% 1,0.78125% 1,0.78125% 1,0.78125% 1,0.78125% 1,0.78125% 1,0.78125% 1,0.78125% 1,0.78125% 1,0.78125% 1,0.78125% 1,0.78125% 1,0.78125% 1,0.78125% 1,0.78125% 1,0.78125% 1,0.78125% 1,0.78125% 1,0.78125% 1,0.78125% 1,0.78125% 1,0.78125% 1,0.78125% 1,0.78125% 1,0.78125% 1,0.78125% 1,0.78125% 1,0.78125% 1,0.78125% 1,0.78125% 1,0.78125% 1,0.78125% 1,0.78125% 1,0.78125% 1,0.78125% 1,0.78125% 1,0.78125% 1,0.78125% 1,0.78125% 1,0.78125% 1,0.78125% 1,0.78125% 1,0.78125% 1,0.78125% 1,0.78125% 1,0.78125%"></path><path class="index64 og2" d="M0,50%l1,0.78125% 1,0.78125% 1,0.78125% 1,0.78125% 1,0.78125% 1,0.78125% 1,0.78125% 1,0.78125% 1,0.78125% 1,0.78125% 1,0.78125% 1,0.78125% 1,0.78125% 1,0.78125% 1,0.78125% 1,0.78125% 1,0.78125% 1,0.78125% 1,0.78125% 1,0.78125% 1,0.78125% 1,0.78125% 1,0.78125% 1,0.78125% 1,0.78125% 1,0.78125% 1,0.78125% 1,0.78125% 1,0.78125% 1,0.78125% 1,0.78125% 1,0.78125% 1,0.78125% 1,0.78125% 1,0.78125% 1,0.78125% 1,0.78125% 1,0.78125% 1,0.78125% 1,0.78125% 1,0.78125% 1,0.78125% 1,0.78125% 1,0.78125% 1,0.78125% 1,0.78125% 1,0.78125% 1,0.78125% 1,0.78125% 1,0.78125% 1,0.78125% 1,0.78125% 1,0.78125% 1,0.78125% 1,0.78125% 1,0.78125% 1,0.78125% 1,0.78125% 1,0.78125% 1,0.78125% 1,0.78125% 1,0.78125% 1,0.78125%"></path><path class="index65 og2" d="M0,50%l1,0.78125% 1,0.78125% 1,0.78125% 1,0.78125% 1,0.78125% 1,0.78125% 1,0.78125% 1,0.78125% 1,0.78125% 1,0.78125% 1,0.78125% 1,0.78125% 1,0.78125% 1,0.78125% 1,0.78125% 1,0.78125% 1,0.78125% 1,0.78125% 1,0.78125% 1,0.78125% 1,0.78125% 1,0.78125% 1,0.78125% 1,0.78125% 1,0.78125% 1,0.78125% 1,0.78125% 1,0.78125% 1,0.78125% 1,0.78125% 1,0.78125% 1,0.78125% 1,0.78125% 1,0.78125% 1,0.78125% 1,0.78125% 1,0.78125% 1,0.78125% 1,0.78125% 1,0.78125% 1,0.78125% 1,0.78125% 1,0.78125% 1,0.78125% 1,0.78125% 1,0.78125% 1,0.78125% 1,0.78125% 1,0.78125% 1,0.78125% 1,0.78125% 1,0.78125% 1,0.78125% 1,0.78125% 1,0.78125% 1,0.78125% 1,0.78125% 1,0.78125% 1,0.78125% 1,0.78125% 1,0.78125% 1,0.78125% 1,0.78125%"></path><path class="index66 og2" d="M0,50%l1,0.78125% 1,0.78125% 1,0.78125% 1,0.78125% 1,0.78125% 1,0.78125% 1,0.78125% 1,0.78125% 1,0.78125% 1,0.78125% 1,0.78125% 1,0.78125% 1,0.78125% 1,0.78125% 1,0.78125% 1,0.78125% 1,0.78125% 1,0.78125% 1,0.78125% 1,0.78125% 1,0.78125% 1,0.78125% 1,0.78125% 1,0.78125% 1,0.78125% 1,0.78125% 1,0.78125% 1,0.78125% 1,0.78125% 1,0.78125% 1,0.78125% 1,0.78125% 1,0.78125% 1,0.78125% 1,0.78125% 1,0.78125% 1,0.78125% 1,0.78125% 1,0.78125% 1,0.78125% 1,0.78125% 1,0.78125% 1,0.78125% 1,0.78125% 1,0.78125% 1,0.78125% 1,0.78125% 1,0.78125% 1,0.78125% 1,0.78125% 1,0.78125% 1,0.78125% 1,0.78125% 1,0.78125% 1,0.78125% 1,0.78125% 1,0.78125% 1,0.78125% 1,0.78125% 1,0.78125% 1,0.78125% 1,0.78125% 1,0.78125%"></path><path class="index67 og2" d="M0,50%l1,0.78125% 1,0.78125% 1,0.78125% 1,0.78125% 1,0.78125% 1,0.78125% 1,0.78125% 1,0.78125% 1,0.78125% 1,0.78125% 1,0.78125% 1,0.78125% 1,0.78125% 1,0.78125% 1,0.78125% 1,0.78125% 1,0.78125% 1,0.78125% 1,0.78125% 1,0.78125% 1,0.78125% 1,0.78125% 1,0.78125% 1,0.78125% 1,0.78125% 1,0.78125% 1,0.78125% 1,0.78125% 1,0.78125% 1,0.78125% 1,0.78125% 1,0.78125% 1,0.78125% 1,0.78125% 1,0.78125% 1,0.78125% 1,0.78125% 1,0.78125% 1,0.78125% 1,0.78125% 1,0.78125% 1,0.78125% 1,0.78125% 1,0.78125% 1,0.78125% 1,0.78125% 1,0.78125% 1,0.78125% 1,0.78125% 1,0.78125% 1,0.78125% 1,0.78125% 1,0.78125% 1,0.78125% 1,0.78125% 1,0.78125% 1,0.78125% 1,0.78125% 1,0.78125% 1,0.78125% 1,0.78125% 1,0.78125% 1,0.78125%"></path><path class="index68 og2" d="M0,50%l1,0.78125% 1,0.78125% 1,0.78125% 1,0.78125% 1,0.78125% 1,0.78125% 1,0.78125% 1,0.78125% 1,0.78125% 1,0.78125% 1,0.78125% 1,0.78125% 1,0.78125% 1,0.78125% 1,0.78125% 1,0.78125% 1,0.78125% 1,0.78125% 1,0.78125% 1,0.78125% 1,0.78125% 1,0.78125% 1,0.78125% 1,0.78125% 1,0.78125% 1,0.78125% 1,0.78125% 1,0.78125% 1,0.78125% 1,0.78125% 1,0.78125% 1,0.78125% 1,0.78125% 1,0.78125% 1,0.78125% 1,0.78125% 1,0.78125% 1,0.78125% 1,0.78125% 1,0.78125% 1,0.78125% 1,0.78125% 1,0.78125% 1,0.78125% 1,0.78125% 1,0.78125% 1,0.78125% 1,0.78125% 1,0.78125% 1,0.78125% 1,0.78125% 1,0.78125% 1,0.78125% 1,0.78125% 1,0.78125% 1,0.78125% 1,0.78125% 1,0.78125% 1,0.78125% 1,0.78125% 1,0.78125% 1,0.78125% 1,0.78125%"></path><path class="index69 og2" d="M0,50%l1,0.78125% 1,0.78125% 1,0.78125% 1,0.78125% 1,0.78125% 1,0.78125% 1,0.78125% 1,0.78125% 1,0.78125% 1,0.78125% 1,0.78125% 1,0.78125% 1,0.78125% 1,0.78125% 1,0.78125% 1,0.78125% 1,0.78125% 1,0.78125% 1,0.78125% 1,0.78125% 1,0.78125% 1,0.78125% 1,0.78125% 1,0.78125% 1,0.78125% 1,0.78125% 1,0.78125% 1,0.78125% 1,0.78125% 1,0.78125% 1,0.78125% 1,0.78125% 1,0.78125% 1,0.78125% 1,0.78125% 1,0.78125% 1,0.78125% 1,0.78125% 1,0.78125% 1,0.78125% 1,0.78125% 1,0.78125% 1,0.78125% 1,0.78125% 1,0.78125% 1,0.78125% 1,0.78125% 1,0.78125% 1,0.78125% 1,0.78125% 1,0.78125% 1,0.78125% 1,0.78125% 1,0.78125% 1,0.78125% 1,0.78125% 1,0.78125% 1,0.78125% 1,0.78125% 1,0.78125% 1,0.78125% 1,0.78125% 1,0.78125%"></path><path class="index70 og2" d="M0,50%l1,0.78125% 1,0.78125% 1,0.78125% 1,0.78125% 1,0.78125% 1,0.78125% 1,0.78125% 1,0.78125% 1,0.78125% 1,0.78125% 1,0.78125% 1,0.78125% 1,0.78125% 1,0.78125% 1,0.78125% 1,0.78125% 1,0.78125% 1,0.78125% 1,0.78125% 1,0.78125% 1,0.78125% 1,0.78125% 1,0.78125% 1,0.78125% 1,0.78125% 1,0.78125% 1,0.78125% 1,0.78125% 1,0.78125% 1,0.78125% 1,0.78125% 1,0.78125% 1,0.78125% 1,0.78125% 1,0.78125% 1,0.78125% 1,0.78125% 1,0.78125% 1,0.78125% 1,0.78125% 1,0.78125% 1,0.78125% 1,0.78125% 1,0.78125% 1,0.78125% 1,0.78125% 1,0.78125% 1,0.78125% 1,0.78125% 1,0.78125% 1,0.78125% 1,0.78125% 1,0.78125% 1,0.78125% 1,0.78125% 1,0.78125% 1,0.78125% 1,0.78125% 1,0.78125% 1,0.78125% 1,0.78125% 1,0.78125% 1,0.78125%"></path><path class="index71 og2" d="M0,50%l1,0.78125% 1,0.78125% 1,0.78125% 1,0.78125% 1,0.78125% 1,0.78125% 1,0.78125% 1,0.78125% 1,0.78125% 1,0.78125% 1,0.78125% 1,0.78125% 1,0.78125% 1,0.78125% 1,0.78125% 1,0.78125% 1,0.78125% 1,0.78125% 1,0.78125% 1,0.78125% 1,0.78125% 1,0.78125% 1,0.78125% 1,0.78125% 1,0.78125% 1,0.78125% 1,0.78125% 1,0.78125% 1,0.78125% 1,0.78125% 1,0.78125% 1,0.78125% 1,0.78125% 1,0.78125% 1,0.78125% 1,0.78125% 1,0.78125% 1,0.78125% 1,0.78125% 1,0.78125% 1,0.78125% 1,0.78125% 1,0.78125% 1,0.78125% 1,0.78125% 1,0.78125% 1,0.78125% 1,0.78125% 1,0.78125% 1,0.78125% 1,0.78125% 1,0.78125% 1,0.78125% 1,0.78125% 1,0.78125% 1,0.78125% 1,0.78125% 1,0.78125% 1,0.78125% 1,0.78125% 1,0.78125% 1,0.78125% 1,0.78125%"></path><path class="index72 og2" d="M0,50%l1,0.78125% 1,0.78125% 1,0.78125% 1,0.78125% 1,0.78125% 1,0.78125% 1,0.78125% 1,0.78125% 1,0.78125% 1,0.78125% 1,0.78125% 1,0.78125% 1,0.78125% 1,0.78125% 1,0.78125% 1,0.78125% 1,0.78125% 1,0.78125% 1,0.78125% 1,0.78125% 1,0.78125% 1,0.78125% 1,0.78125% 1,0.78125% 1,0.78125% 1,0.78125% 1,0.78125% 1,0.78125% 1,0.78125% 1,0.78125% 1,0.78125% 1,0.78125% 1,0.78125% 1,0.78125% 1,0.78125% 1,0.78125% 1,0.78125% 1,0.78125% 1,0.78125% 1,0.78125% 1,0.78125% 1,0.78125% 1,0.78125% 1,0.78125% 1,0.78125% 1,0.78125% 1,0.78125% 1,0.78125% 1,0.78125% 1,0.78125% 1,0.78125% 1,0.78125% 1,0.78125% 1,0.78125% 1,0.78125% 1,0.78125% 1,0.78125% 1,0.78125% 1,0.78125% 1,0.78125% 1,0.78125% 1,0.78125% 1,0.78125%"></path><path class="index73 og2" d="M0,50%l1,0.78125% 1,0.78125% 1,0.78125% 1,0.78125% 1,0.78125% 1,0.78125% 1,0.78125% 1,0.78125% 1,0.78125% 1,0.78125% 1,0.78125% 1,0.78125% 1,0.78125% 1,0.78125% 1,0.78125% 1,0.78125% 1,0.78125% 1,0.78125% 1,0.78125% 1,0.78125% 1,0.78125% 1,0.78125% 1,0.78125% 1,0.78125% 1,0.78125% 1,0.78125% 1,0.78125% 1,0.78125% 1,0.78125% 1,0.78125% 1,0.78125% 1,0.78125% 1,0.78125% 1,0.78125% 1,0.78125% 1,0.78125% 1,0.78125% 1,0.78125% 1,0.78125% 1,0.78125% 1,0.78125% 1,0.78125% 1,0.78125% 1,0.78125% 1,0.78125% 1,0.78125% 1,0.78125% 1,0.78125% 1,0.78125% 1,0.78125% 1,0.78125% 1,0.78125% 1,0.78125% 1,0.78125% 1,0.78125% 1,0.78125% 1,0.78125% 1,0.78125% 1,0.78125% 1,0.78125% 1,0.78125% 1,0.78125% 1,0.78125%"></path><path class="index74 og2" d="M0,50%l1,0.78125% 1,0.78125% 1,0.78125% 1,0.78125% 1,0.78125% 1,0.78125% 1,0.78125% 1,0.78125% 1,0.78125% 1,0.78125% 1,0.78125% 1,0.78125% 1,0.78125% 1,0.78125% 1,0.78125% 1,0.78125% 1,0.78125% 1,0.78125% 1,0.78125% 1,0.78125% 1,0.78125% 1,0.78125% 1,0.78125% 1,0.78125% 1,0.78125% 1,0.78125% 1,0.78125% 1,0.78125% 1,0.78125% 1,0.78125% 1,0.78125% 1,0.78125% 1,0.78125% 1,0.78125% 1,0.78125% 1,0.78125% 1,0.78125% 1,0.78125% 1,0.78125% 1,0.78125% 1,0.78125% 1,0.78125% 1,0.78125% 1,0.78125% 1,0.78125% 1,0.78125% 1,0.78125% 1,0.78125% 1,0.78125% 1,0.78125% 1,0.78125% 1,0.78125% 1,0.78125% 1,0.78125% 1,0.78125% 1,0.78125% 1,0.78125% 1,0.78125% 1,0.78125% 1,0.78125% 1,0.78125% 1,0.78125% 1,0.78125%"></path><path class="index75 og2" d="M0,50%l1,0.78125% 1,0.78125% 1,0.78125% 1,0.78125% 1,0.78125% 1,0.78125% 1,0.78125% 1,0.78125% 1,0.78125% 1,0.78125% 1,0.78125% 1,0.78125% 1,0.78125% 1,0.78125% 1,0.78125% 1,0.78125% 1,0.78125% 1,0.78125% 1,0.78125% 1,0.78125% 1,0.78125% 1,0.78125% 1,0.78125% 1,0.78125% 1,0.78125% 1,0.78125% 1,0.78125% 1,0.78125% 1,0.78125% 1,0.78125% 1,0.78125% 1,0.78125% 1,0.78125% 1,0.78125% 1,0.78125% 1,0.78125% 1,0.78125% 1,0.78125% 1,0.78125% 1,0.78125% 1,0.78125% 1,0.78125% 1,0.78125% 1,0.78125% 1,0.78125% 1,0.78125% 1,0.78125% 1,0.78125% 1,0.78125% 1,0.78125% 1,0.78125% 1,0.78125% 1,0.78125% 1,0.78125% 1,0.78125% 1,0.78125% 1,0.78125% 1,0.78125% 1,0.78125% 1,0.78125% 1,0.78125% 1,0.78125% 1,0.78125%"></path><path class="index76 og2" d="M0,50%l1,0.78125% 1,0.78125% 1,0.78125% 1,0.78125% 1,0.78125% 1,0.78125% 1,0.78125% 1,0.78125% 1,0.78125% 1,0.78125% 1,0.78125% 1,0.78125% 1,0.78125% 1,0.78125% 1,0.78125% 1,0.78125% 1,0.78125% 1,0.78125% 1,0.78125% 1,0.78125% 1,0.78125% 1,0.78125% 1,0.78125% 1,0.78125% 1,0.78125% 1,0.78125% 1,0.78125% 1,0.78125% 1,0.78125% 1,0.78125% 1,0.78125% 1,0.78125% 1,0.78125% 1,0.78125% 1,0.78125% 1,0.78125% 1,0.78125% 1,0.78125% 1,0.78125% 1,0.78125% 1,0.78125% 1,0.78125% 1,0.78125% 1,0.78125% 1,0.78125% 1,0.78125% 1,0.78125% 1,0.78125% 1,0.78125% 1,0.78125% 1,0.78125% 1,0.78125% 1,0.78125% 1,0.78125% 1,0.78125% 1,0.78125% 1,0.78125% 1,0.78125% 1,0.78125% 1,0.78125% 1,0.78125% 1,0.78125% 1,0.78125%"></path><path class="index77 og2" d="M0,50%l1,0.78125% 1,0.78125% 1,0.78125% 1,0.78125% 1,0.78125% 1,0.78125% 1,0.78125% 1,0.78125% 1,0.78125% 1,0.78125% 1,0.78125% 1,0.78125% 1,0.78125% 1,0.78125% 1,0.78125% 1,0.78125% 1,0.78125% 1,0.78125% 1,0.78125% 1,0.78125% 1,0.78125% 1,0.78125% 1,0.78125% 1,0.78125% 1,0.78125% 1,0.78125% 1,0.78125% 1,0.78125% 1,0.78125% 1,0.78125% 1,0.78125% 1,0.78125% 1,0.78125% 1,0.78125% 1,0.78125% 1,0.78125% 1,0.78125% 1,0.78125% 1,0.78125% 1,0.78125% 1,0.78125% 1,0.78125% 1,0.78125% 1,0.78125% 1,0.78125% 1,0.78125% 1,0.78125% 1,0.78125% 1,0.78125% 1,0.78125% 1,0.78125% 1,0.78125% 1,0.78125% 1,0.78125% 1,0.78125% 1,0.78125% 1,0.78125% 1,0.78125% 1,0.78125% 1,0.78125% 1,0.78125% 1,0.78125% 1,0.78125%"></path><path class="index78 og2" d="M0,50%l1,0.78125% 1,0.78125% 1,0.78125% 1,0.78125% 1,0.78125% 1,0.78125% 1,0.78125% 1,0.78125% 1,0.78125% 1,0.78125% 1,0.78125% 1,0.78125% 1,0.78125% 1,0.78125% 1,0.78125% 1,0.78125% 1,0.78125% 1,0.78125% 1,0.78125% 1,0.78125% 1,0.78125% 1,0.78125% 1,0.78125% 1,0.78125% 1,0.78125% 1,0.78125% 1,0.78125% 1,0.78125% 1,0.78125% 1,0.78125% 1,0.78125% 1,0.78125% 1,0.78125% 1,0.78125% 1,0.78125% 1,0.78125% 1,0.78125% 1,0.78125% 1,0.78125% 1,0.78125% 1,0.78125% 1,0.78125% 1,0.78125% 1,0.78125% 1,0.78125% 1,0.78125% 1,0.78125% 1,0.78125% 1,0.78125% 1,0.78125% 1,0.78125% 1,0.78125% 1,0.78125% 1,0.78125% 1,0.78125% 1,0.78125% 1,0.78125% 1,0.78125% 1,0.78125% 1,0.78125% 1,0.78125% 1,0.78125% 1,0.78125%"></path><path class="index79 og2" d="M0,50%l1,0.78125% 1,0.78125% 1,0.78125% 1,0.78125% 1,0.78125% 1,0.78125% 1,0.78125% 1,0.78125% 1,0.78125% 1,0.78125% 1,0.78125% 1,0.78125% 1,0.78125% 1,0.78125% 1,0.78125% 1,0.78125% 1,0.78125% 1,0.78125% 1,0.78125% 1,0.78125% 1,0.78125% 1,0.78125% 1,0.78125% 1,0.78125% 1,0.78125% 1,0.78125% 1,0.78125% 1,0.78125% 1,0.78125% 1,0.78125% 1,0.78125% 1,0.78125% 1,0.78125% 1,0.78125% 1,0.78125% 1,0.78125% 1,0.78125% 1,0.78125% 1,0.78125% 1,0.78125% 1,0.78125% 1,0.78125% 1,0.78125% 1,0.78125% 1,0.78125% 1,0.78125% 1,0.78125% 1,0.78125% 1,0.78125% 1,0.78125% 1,0.78125% 1,0.78125% 1,0.78125% 1,0.78125% 1,0.78125% 1,0.78125% 1,0.78125% 1,0.78125% 1,0.78125% 1,0.78125% 1,0.78125% 1,0.78125% 1,0.78125%"></path><path class="index80 og2" d="M0,50%l1,0.78125% 1,0.78125% 1,0.78125% 1,0.78125% 1,0.78125% 1,0.78125% 1,0.78125% 1,0.78125% 1,0.78125% 1,0.78125% 1,0.78125% 1,0.78125% 1,0.78125% 1,0.78125% 1,0.78125% 1,0.78125% 1,0.78125% 1,0.78125% 1,0.78125% 1,0.78125% 1,0.78125% 1,0.78125% 1,0.78125% 1,0.78125% 1,0.78125% 1,0.78125% 1,0.78125% 1,0.78125% 1,0.78125% 1,0.78125% 1,0.78125% 1,0.78125% 1,0.78125% 1,0.78125% 1,0.78125% 1,0.78125% 1,0.78125% 1,0.78125% 1,0.78125% 1,0.78125% 1,0.78125% 1,0.78125% 1,0.78125% 1,0.78125% 1,0.78125% 1,0.78125% 1,0.78125% 1,0.78125% 1,0.78125% 1,0.78125% 1,0.78125% 1,0.78125% 1,0.78125% 1,0.78125% 1,0.78125% 1,0.78125% 1,0.78125% 1,0.78125% 1,0.78125% 1,0.78125% 1,0.78125% 1,0.78125% 1,0.78125%"></path><path class="index81 og2" d="M0,50%l1,0.78125% 1,0.78125% 1,0.78125% 1,0.78125% 1,0.78125% 1,0.78125% 1,0.78125% 1,0.78125% 1,0.78125% 1,0.78125% 1,0.78125% 1,0.78125% 1,0.78125% 1,0.78125% 1,0.78125% 1,0.78125% 1,0.78125% 1,0.78125% 1,0.78125% 1,0.78125% 1,0.78125% 1,0.78125% 1,0.78125% 1,0.78125% 1,0.78125% 1,0.78125% 1,0.78125% 1,0.78125% 1,0.78125% 1,0.78125% 1,0.78125% 1,0.78125% 1,0.78125% 1,0.78125% 1,0.78125% 1,0.78125% 1,0.78125% 1,0.78125% 1,0.78125% 1,0.78125% 1,0.78125% 1,0.78125% 1,0.78125% 1,0.78125% 1,0.78125% 1,0.78125% 1,0.78125% 1,0.78125% 1,0.78125% 1,0.78125% 1,0.78125% 1,0.78125% 1,0.78125% 1,0.78125% 1,0.78125% 1,0.78125% 1,0.78125% 1,0.78125% 1,0.78125% 1,0.78125% 1,0.78125% 1,0.78125% 1,0.78125%"></path><path class="index82 og2" d="M0,50%l1,0.78125% 1,0.78125% 1,0.78125% 1,0.78125% 1,0.78125% 1,0.78125% 1,0.78125% 1,0.78125% 1,0.78125% 1,0.78125% 1,0.78125% 1,0.78125% 1,0.78125% 1,0.78125% 1,0.78125% 1,0.78125% 1,0.78125% 1,0.78125% 1,0.78125% 1,0.78125% 1,0.78125% 1,0.78125% 1,0.78125% 1,0.78125% 1,0.78125% 1,0.78125% 1,0.78125% 1,0.78125% 1,0.78125% 1,0.78125% 1,0.78125% 1,0.78125% 1,0.78125% 1,0.78125% 1,0.78125% 1,0.78125% 1,0.78125% 1,0.78125% 1,0.78125% 1,0.78125% 1,0.78125% 1,0.78125% 1,0.78125% 1,0.78125% 1,0.78125% 1,0.78125% 1,0.78125% 1,0.78125% 1,0.78125% 1,0.78125% 1,0.78125% 1,0.78125% 1,0.78125% 1,0.78125% 1,0.78125% 1,0.78125% 1,0.78125% 1,0.78125% 1,0.78125% 1,0.78125% 1,0.78125% 1,0.78125% 1,0.78125%"></path><path class="index83 og2" d="M0,50%l1,0.78125% 1,0.78125% 1,0.78125% 1,0.78125% 1,0.78125% 1,0.78125% 1,0.78125% 1,0.78125% 1,0.78125% 1,0.78125% 1,0.78125% 1,0.78125% 1,0.78125% 1,0.78125% 1,0.78125% 1,0.78125% 1,0.78125% 1,0.78125% 1,0.78125% 1,0.78125% 1,0.78125% 1,0.78125% 1,0.78125% 1,0.78125% 1,0.78125% 1,0.78125% 1,0.78125% 1,0.78125% 1,0.78125% 1,0.78125% 1,0.78125% 1,0.78125% 1,0.78125% 1,0.78125% 1,0.78125% 1,0.78125% 1,0.78125% 1,0.78125% 1,0.78125% 1,0.78125% 1,0.78125% 1,0.78125% 1,0.78125% 1,0.78125% 1,0.78125% 1,0.78125% 1,0.78125% 1,0.78125% 1,0.78125% 1,0.78125% 1,0.78125% 1,0.78125% 1,0.78125% 1,0.78125% 1,0.78125% 1,0.78125% 1,0.78125% 1,0.78125% 1,0.78125% 1,0.78125% 1,0.78125% 1,0.78125% 1,0.78125%"></path><path class="index84 og2" d="M0,50%l1,0.78125% 1,0.78125% 1,0.78125% 1,0.78125% 1,0.78125% 1,0.78125% 1,0.78125% 1,0.78125% 1,0.78125% 1,0.78125% 1,0.78125% 1,0.78125% 1,0.78125% 1,0.78125% 1,0.78125% 1,0.78125% 1,0.78125% 1,0.78125% 1,0.78125% 1,0.78125% 1,0.78125% 1,0.78125% 1,0.78125% 1,0.78125% 1,0.78125% 1,0.78125% 1,0.78125% 1,0.78125% 1,0.78125% 1,0.78125% 1,0.78125% 1,0.78125% 1,0.78125% 1,0.78125% 1,0.78125% 1,0.78125% 1,0.78125% 1,0.78125% 1,0.78125% 1,0.78125% 1,0.78125% 1,0.78125% 1,0.78125% 1,0.78125% 1,0.78125% 1,0.78125% 1,0.78125% 1,0.78125% 1,0.78125% 1,0.78125% 1,0.78125% 1,0.78125% 1,0.78125% 1,0.78125% 1,0.78125% 1,0.78125% 1,0.78125% 1,0.78125% 1,0.78125% 1,0.78125% 1,0.78125% 1,0.78125% 1,0.78125%"></path><path class="index85 og2" d="M0,50%l1,0.78125% 1,0.78125% 1,0.78125% 1,0.78125% 1,0.78125% 1,0.78125% 1,0.78125% 1,0.78125% 1,0.78125% 1,0.78125% 1,0.78125% 1,0.78125% 1,0.78125% 1,0.78125% 1,0.78125% 1,0.78125% 1,0.78125% 1,0.78125% 1,0.78125% 1,0.78125% 1,0.78125% 1,0.78125% 1,0.78125% 1,0.78125% 1,0.78125% 1,0.78125% 1,0.78125% 1,0.78125% 1,0.78125% 1,0.78125% 1,0.78125% 1,0.78125% 1,0.78125% 1,0.78125% 1,0.78125% 1,0.78125% 1,0.78125% 1,0.78125% 1,0.78125% 1,0.78125% 1,0.78125% 1,0.78125% 1,0.78125% 1,0.78125% 1,0.78125% 1,0.78125% 1,0.78125% 1,0.78125% 1,0.78125% 1,0.78125% 1,0.78125% 1,0.78125% 1,0.78125% 1,0.78125% 1,0.78125% 1,0.78125% 1,0.78125% 1,0.78125% 1,0.78125% 1,0.78125% 1,0.78125% 1,0.78125% 1,0.78125%"></path><path class="index86 og2" d="M0,50%l1,0.78125% 1,0.78125% 1,0.78125% 1,0.78125% 1,0.78125% 1,0.78125% 1,0.78125% 1,0.78125% 1,0.78125% 1,0.78125% 1,0.78125% 1,0.78125% 1,0.78125% 1,0.78125% 1,0.78125% 1,0.78125% 1,0.78125% 1,0.78125% 1,0.78125% 1,0.78125% 1,0.78125% 1,0.78125% 1,0.78125% 1,0.78125% 1,0.78125% 1,0.78125% 1,0.78125% 1,0.78125% 1,0.78125% 1,0.78125% 1,0.78125% 1,0.78125% 1,0.78125% 1,0.78125% 1,0.78125% 1,0.78125% 1,0.78125% 1,0.78125% 1,0.78125% 1,0.78125% 1,0.78125% 1,0.78125% 1,0.78125% 1,0.78125% 1,0.78125% 1,0.78125% 1,0.78125% 1,0.78125% 1,0.78125% 1,0.78125% 1,0.78125% 1,0.78125% 1,0.78125% 1,0.78125% 1,0.78125% 1,0.78125% 1,0.78125% 1,0.78125% 1,0.78125% 1,0.78125% 1,0.78125% 1,0.78125% 1,0.78125%"></path><path class="index87 og2" d="M0,50%l1,0.78125% 1,0.78125% 1,0.78125% 1,0.78125% 1,0.78125% 1,0.78125% 1,0.78125% 1,0.78125% 1,0.78125% 1,0.78125% 1,0.78125% 1,0.78125% 1,0.78125% 1,0.78125% 1,0.78125% 1,0.78125% 1,0.78125% 1,0.78125% 1,0.78125% 1,0.78125% 1,0.78125% 1,0.78125% 1,0.78125% 1,0.78125% 1,0.78125% 1,0.78125% 1,0.78125% 1,0.78125% 1,0.78125% 1,0.78125% 1,0.78125% 1,0.78125% 1,0.78125% 1,0.78125% 1,0.78125% 1,0.78125% 1,0.78125% 1,0.78125% 1,0.78125% 1,0.78125% 1,0.78125% 1,0.78125% 1,0.78125% 1,0.78125% 1,0.78125% 1,0.78125% 1,0.78125% 1,0.78125% 1,0.78125% 1,0.78125% 1,0.78125% 1,0.78125% 1,0.78125% 1,0.78125% 1,0.78125% 1,0.78125% 1,0.78125% 1,0.78125% 1,0.78125% 1,0.78125% 1,0.78125% 1,0.78125% 1,0.78125%"></path><path class="index88 og2" d="M0,50%l1,0.78125% 1,0.78125% 1,0.78125% 1,0.78125% 1,0.78125% 1,0.78125% 1,0.78125% 1,0.78125% 1,0.78125% 1,0.78125% 1,0.78125% 1,0.78125% 1,0.78125% 1,0.78125% 1,0.78125% 1,0.78125% 1,0.78125% 1,0.78125% 1,0.78125% 1,0.78125% 1,0.78125% 1,0.78125% 1,0.78125% 1,0.78125% 1,0.78125% 1,0.78125% 1,0.78125% 1,0.78125% 1,0.78125% 1,0.78125% 1,0.78125% 1,0.78125% 1,0.78125% 1,0.78125% 1,0.78125% 1,0.78125% 1,0.78125% 1,0.78125% 1,0.78125% 1,0.78125% 1,0.78125% 1,0.78125% 1,0.78125% 1,0.78125% 1,0.78125% 1,0.78125% 1,0.78125% 1,0.78125% 1,0.78125% 1,0.78125% 1,0.78125% 1,0.78125% 1,0.78125% 1,0.78125% 1,0.78125% 1,0.78125% 1,0.78125% 1,0.78125% 1,0.78125% 1,0.78125% 1,0.78125% 1,0.78125% 1,0.78125%"></path><path class="index89 og2" d="M0,50%l1,0.78125% 1,0.78125% 1,0.78125% 1,0.78125% 1,0.78125% 1,0.78125% 1,0.78125% 1,0.78125% 1,0.78125% 1,0.78125% 1,0.78125% 1,0.78125% 1,0.78125% 1,0.78125% 1,0.78125% 1,0.78125% 1,0.78125% 1,0.78125% 1,0.78125% 1,0.78125% 1,0.78125% 1,0.78125% 1,0.78125% 1,0.78125% 1,0.78125% 1,0.78125% 1,0.78125% 1,0.78125% 1,0.78125% 1,0.78125% 1,0.78125% 1,0.78125% 1,0.78125% 1,0.78125% 1,0.78125% 1,0.78125% 1,0.78125% 1,0.78125% 1,0.78125% 1,0.78125% 1,0.78125% 1,0.78125% 1,0.78125% 1,0.78125% 1,0.78125% 1,0.78125% 1,0.78125% 1,0.78125% 1,0.78125% 1,0.78125% 1,0.78125% 1,0.78125% 1,0.78125% 1,0.78125% 1,0.78125% 1,0.78125% 1,0.78125% 1,0.78125% 1,0.78125% 1,0.78125% 1,0.78125% 1,0.78125% 1,0.78125%"></path><path class="index90 og2" d="M0,50%l1,0.78125% 1,0.78125% 1,0.78125% 1,0.78125% 1,0.78125% 1,0.78125% 1,0.78125% 1,0.78125% 1,0.78125% 1,0.78125% 1,0.78125% 1,0.78125% 1,0.78125% 1,0.78125% 1,0.78125% 1,0.78125% 1,0.78125% 1,0.78125% 1,0.78125% 1,0.78125% 1,0.78125% 1,0.78125% 1,0.78125% 1,0.78125% 1,0.78125% 1,0.78125% 1,0.78125% 1,0.78125% 1,0.78125% 1,0.78125% 1,0.78125% 1,0.78125% 1,0.78125% 1,0.78125% 1,0.78125% 1,0.78125% 1,0.78125% 1,0.78125% 1,0.78125% 1,0.78125% 1,0.78125% 1,0.78125% 1,0.78125% 1,0.78125% 1,0.78125% 1,0.78125% 1,0.78125% 1,0.78125% 1,0.78125% 1,0.78125% 1,0.78125% 1,0.78125% 1,0.78125% 1,0.78125% 1,0.78125% 1,0.78125% 1,0.78125% 1,0.78125% 1,0.78125% 1,0.78125% 1,0.78125% 1,0.78125% 1,0.78125%"></path><path class="index91 og2" d="M0,50%l1,0.78125% 1,0.78125% 1,0.78125% 1,0.78125% 1,0.78125% 1,0.78125% 1,0.78125% 1,0.78125% 1,0.78125% 1,0.78125% 1,0.78125% 1,0.78125% 1,0.78125% 1,0.78125% 1,0.78125% 1,0.78125% 1,0.78125% 1,0.78125% 1,0.78125% 1,0.78125% 1,0.78125% 1,0.78125% 1,0.78125% 1,0.78125% 1,0.78125% 1,0.78125% 1,0.78125% 1,0.78125% 1,0.78125% 1,0.78125% 1,0.78125% 1,0.78125% 1,0.78125% 1,0.78125% 1,0.78125% 1,0.78125% 1,0.78125% 1,0.78125% 1,0.78125% 1,0.78125% 1,0.78125% 1,0.78125% 1,0.78125% 1,0.78125% 1,0.78125% 1,0.78125% 1,0.78125% 1,0.78125% 1,0.78125% 1,0.78125% 1,0.78125% 1,0.78125% 1,0.78125% 1,0.78125% 1,0.78125% 1,0.78125% 1,0.78125% 1,0.78125% 1,0.78125% 1,0.78125% 1,0.78125% 1,0.78125% 1,0.78125%"></path><path class="index92 og2" d="M0,50%l1,0.78125% 1,0.78125% 1,0.78125% 1,0.78125% 1,0.78125% 1,0.78125% 1,0.78125% 1,0.78125% 1,0.78125% 1,0.78125% 1,0.78125% 1,0.78125% 1,0.78125% 1,0.78125% 1,0.78125% 1,0.78125% 1,0.78125% 1,0.78125% 1,0.78125% 1,0.78125% 1,0.78125% 1,0.78125% 1,0.78125% 1,0.78125% 1,0.78125% 1,0.78125% 1,0.78125% 1,0.78125% 1,0.78125% 1,0.78125% 1,0.78125% 1,0.78125% 1,0.78125% 1,0.78125% 1,0.78125% 1,0.78125% 1,0.78125% 1,0.78125% 1,0.78125% 1,0.78125% 1,0.78125% 1,0.78125% 1,0.78125% 1,0.78125% 1,0.78125% 1,0.78125% 1,0.78125% 1,0.78125% 1,0.78125% 1,0.78125% 1,0.78125% 1,0.78125% 1,0.78125% 1,0.78125% 1,0.78125% 1,0.78125% 1,0.78125% 1,0.78125% 1,0.78125% 1,0.78125% 1,0.78125% 1,0.78125% 1,0.78125%"></path><path class="index93 og2" d="M0,50%l1,0.78125% 1,0.78125% 1,0.78125% 1,0.78125% 1,0.78125% 1,0.78125% 1,0.78125% 1,0.78125% 1,0.78125% 1,0.78125% 1,0.78125% 1,0.78125% 1,0.78125% 1,0.78125% 1,0.78125% 1,0.78125% 1,0.78125% 1,0.78125% 1,0.78125% 1,0.78125% 1,0.78125% 1,0.78125% 1,0.78125% 1,0.78125% 1,0.78125% 1,0.78125% 1,0.78125% 1,0.78125% 1,0.78125% 1,0.78125% 1,0.78125% 1,0.78125% 1,0.78125% 1,0.78125% 1,0.78125% 1,0.78125% 1,0.78125% 1,0.78125% 1,0.78125% 1,0.78125% 1,0.78125% 1,0.78125% 1,0.78125% 1,0.78125% 1,0.78125% 1,0.78125% 1,0.78125% 1,0.78125% 1,0.78125% 1,0.78125% 1,0.78125% 1,0.78125% 1,0.78125% 1,0.78125% 1,0.78125% 1,0.78125% 1,0.78125% 1,0.78125% 1,0.78125% 1,0.78125% 1,0.78125% 1,0.78125% 1,0.78125%"></path><path class="index94 og2" d="M0,50%l1,0.78125% 1,0.78125% 1,0.78125% 1,0.78125% 1,0.78125% 1,0.78125% 1,0.78125% 1,0.78125% 1,0.78125% 1,0.78125% 1,0.78125% 1,0.78125% 1,0.78125% 1,0.78125% 1,0.78125% 1,0.78125% 1,0.78125% 1,0.78125% 1,0.78125% 1,0.78125% 1,0.78125% 1,0.78125% 1,0.78125% 1,0.78125% 1,0.78125% 1,0.78125% 1,0.78125% 1,0.78125% 1,0.78125% 1,0.78125% 1,0.78125% 1,0.78125% 1,0.78125% 1,0.78125% 1,0.78125% 1,0.78125% 1,0.78125% 1,0.78125% 1,0.78125% 1,0.78125% 1,0.78125% 1,0.78125% 1,0.78125% 1,0.78125% 1,0.78125% 1,0.78125% 1,0.78125% 1,0.78125% 1,0.78125% 1,0.78125% 1,0.78125% 1,0.78125% 1,0.78125% 1,0.78125% 1,0.78125% 1,0.78125% 1,0.78125% 1,0.78125% 1,0.78125% 1,0.78125% 1,0.78125% 1,0.78125% 1,0.78125%"></path><path class="index95 og2" d="M0,50%l1,0.78125% 1,0.78125% 1,0.78125% 1,0.78125% 1,0.78125% 1,0.78125% 1,0.78125% 1,0.78125% 1,0.78125% 1,0.78125% 1,0.78125% 1,0.78125% 1,0.78125% 1,0.78125% 1,0.78125% 1,0.78125% 1,0.78125% 1,0.78125% 1,0.78125% 1,0.78125% 1,0.78125% 1,0.78125% 1,0.78125% 1,0.78125% 1,0.78125% 1,0.78125% 1,0.78125% 1,0.78125% 1,0.78125% 1,0.78125% 1,0.78125% 1,0.78125% 1,0.78125% 1,0.78125% 1,0.78125% 1,0.78125% 1,0.78125% 1,0.78125% 1,0.78125% 1,0.78125% 1,0.78125% 1,0.78125% 1,0.78125% 1,0.78125% 1,0.78125% 1,0.78125% 1,0.78125% 1,0.78125% 1,0.78125% 1,0.78125% 1,0.78125% 1,0.78125% 1,0.78125% 1,0.78125% 1,0.78125% 1,0.78125% 1,0.78125% 1,0.78125% 1,0.78125% 1,0.78125% 1,0.78125% 1,0.78125% 1,0.78125%"></path><path class="index96 og2" d="M0,50%l1,0.78125% 1,0.78125% 1,0.78125% 1,0.78125% 1,0.78125% 1,0.78125% 1,0.78125% 1,0.78125% 1,0.78125% 1,0.78125% 1,0.78125% 1,0.78125% 1,0.78125% 1,0.78125% 1,0.78125% 1,0.78125% 1,0.78125% 1,0.78125% 1,0.78125% 1,0.78125% 1,0.78125% 1,0.78125% 1,0.78125% 1,0.78125% 1,0.78125% 1,0.78125% 1,0.78125% 1,0.78125% 1,0.78125% 1,0.78125% 1,0.78125% 1,0.78125% 1,0.78125% 1,0.78125% 1,0.78125% 1,0.78125% 1,0.78125% 1,0.78125% 1,0.78125% 1,0.78125% 1,0.78125% 1,0.78125% 1,0.78125% 1,0.78125% 1,0.78125% 1,0.78125% 1,0.78125% 1,0.78125% 1,0.78125% 1,0.78125% 1,0.78125% 1,0.78125% 1,0.78125% 1,0.78125% 1,0.78125% 1,0.78125% 1,0.78125% 1,0.78125% 1,0.78125% 1,0.78125% 1,0.78125% 1,0.78125% 1,0.78125%"></path><path class="index97 og2" d="M0,50%l1,0.78125% 1,0.78125% 1,0.78125% 1,0.78125% 1,0.78125% 1,0.78125% 1,0.78125% 1,0.78125% 1,0.78125% 1,0.78125% 1,0.78125% 1,0.78125% 1,0.78125% 1,0.78125% 1,0.78125% 1,0.78125% 1,0.78125% 1,0.78125% 1,0.78125% 1,0.78125% 1,0.78125% 1,0.78125% 1,0.78125% 1,0.78125% 1,0.78125% 1,0.78125% 1,0.78125% 1,0.78125% 1,0.78125% 1,0.78125% 1,0.78125% 1,0.78125% 1,0.78125% 1,0.78125% 1,0.78125% 1,0.78125% 1,0.78125% 1,0.78125% 1,0.78125% 1,0.78125% 1,0.78125% 1,0.78125% 1,0.78125% 1,0.78125% 1,0.78125% 1,0.78125% 1,0.78125% 1,0.78125% 1,0.78125% 1,0.78125% 1,0.78125% 1,0.78125% 1,0.78125% 1,0.78125% 1,0.78125% 1,0.78125% 1,0.78125% 1,0.78125% 1,0.78125% 1,0.78125% 1,0.78125% 1,0.78125% 1,0.78125%"></path><path class="index98 og2" d="M0,50%l1,0.78125% 1,0.78125% 1,0.78125% 1,0.78125% 1,0.78125% 1,0.78125% 1,0.78125% 1,0.78125% 1,0.78125% 1,0.78125% 1,0.78125% 1,0.78125% 1,0.78125% 1,0.78125% 1,0.78125% 1,0.78125% 1,0.78125% 1,0.78125% 1,0.78125% 1,0.78125% 1,0.78125% 1,0.78125% 1,0.78125% 1,0.78125% 1,0.78125% 1,0.78125% 1,0.78125% 1,0.78125% 1,0.78125% 1,0.78125% 1,0.78125% 1,0.78125% 1,0.78125% 1,0.78125% 1,0.78125% 1,0.78125% 1,0.78125% 1,0.78125% 1,0.78125% 1,0.78125% 1,0.78125% 1,0.78125% 1,0.78125% 1,0.78125% 1,0.78125% 1,0.78125% 1,0.78125% 1,0.78125% 1,0.78125% 1,0.78125% 1,0.78125% 1,0.78125% 1,0.78125% 1,0.78125% 1,0.78125% 1,0.78125% 1,0.78125% 1,0.78125% 1,0.78125% 1,0.78125% 1,0.78125% 1,0.78125% 1,0.78125%"></path><path class="index99 og2" d="M0,50%l1,0.78125% 1,0.78125% 1,0.78125% 1,0.78125% 1,0.78125% 1,0.78125% 1,0.78125% 1,0.78125% 1,0.78125% 1,0.78125% 1,0.78125% 1,0.78125% 1,0.78125% 1,0.78125% 1,0.78125% 1,0.78125% 1,0.78125% 1,0.78125% 1,0.78125% 1,0.78125% 1,0.78125% 1,0.78125% 1,0.78125% 1,0.78125% 1,0.78125% 1,0.78125% 1,0.78125% 1,0.78125% 1,0.78125% 1,0.78125% 1,0.78125% 1,0.78125% 1,0.78125% 1,0.78125% 1,0.78125% 1,0.78125% 1,0.78125% 1,0.78125% 1,0.78125% 1,0.78125% 1,0.78125% 1,0.78125% 1,0.78125% 1,0.78125% 1,0.78125% 1,0.78125% 1,0.78125% 1,0.78125% 1,0.78125% 1,0.78125% 1,0.78125% 1,0.78125% 1,0.78125% 1,0.78125% 1,0.78125% 1,0.78125% 1,0.78125% 1,0.78125% 1,0.78125% 1,0.78125% 1,0.78125% 1,0.78125% 1,0.78125%"></path><path class="index100 og2" d="M0,50%l1,0.78125% 1,0.78125% 1,0.78125% 1,0.78125% 1,0.78125% 1,0.78125% 1,0.78125% 1,0.78125% 1,0.78125% 1,0.78125% 1,0.78125% 1,0.78125% 1,0.78125% 1,0.78125% 1,0.78125% 1,0.78125% 1,0.78125% 1,0.78125% 1,0.78125% 1,0.78125% 1,0.78125% 1,0.78125% 1,0.78125% 1,0.78125% 1,0.78125% 1,0.78125% 1,0.78125% 1,0.78125% 1,0.78125% 1,0.78125% 1,0.78125% 1,0.78125% 1,0.78125% 1,0.78125% 1,0.78125% 1,0.78125% 1,0.78125% 1,0.78125% 1,0.78125% 1,0.78125% 1,0.78125% 1,0.78125% 1,0.78125% 1,0.78125% 1,0.78125% 1,0.78125% 1,0.78125% 1,0.78125% 1,0.78125% 1,0.78125% 1,0.78125% 1,0.78125% 1,0.78125% 1,0.78125% 1,0.78125% 1,0.78125% 1,0.78125% 1,0.78125% 1,0.78125% 1,0.78125% 1,0.78125% 1,0.78125% 1,0.78125%"></path><path class="index101 og2" d="M0,50%l1,0.78125% 1,0.78125% 1,0.78125% 1,0.78125% 1,0.78125% 1,0.78125% 1,0.78125% 1,0.78125% 1,0.78125% 1,0.78125% 1,0.78125% 1,0.78125% 1,0.78125% 1,0.78125% 1,0.78125% 1,0.78125% 1,0.78125% 1,0.78125% 1,0.78125% 1,0.78125% 1,0.78125% 1,0.78125% 1,0.78125% 1,0.78125% 1,0.78125% 1,0.78125% 1,0.78125% 1,0.78125% 1,0.78125% 1,0.78125% 1,0.78125% 1,0.78125% 1,0.78125% 1,0.78125% 1,0.78125% 1,0.78125% 1,0.78125% 1,0.78125% 1,0.78125% 1,0.78125% 1,0.78125% 1,0.78125% 1,0.78125% 1,0.78125% 1,0.78125% 1,0.78125% 1,0.78125% 1,0.78125% 1,0.78125% 1,0.78125% 1,0.78125% 1,0.78125% 1,0.78125% 1,0.78125% 1,0.78125% 1,0.78125% 1,0.78125% 1,0.78125% 1,0.78125% 1,0.78125% 1,0.78125% 1,0.78125% 1,0.78125%"></path><path class="index102 og2" d="M0,50%l1,0.78125% 1,0.78125% 1,0.78125% 1,0.78125% 1,0.78125% 1,0.78125% 1,0.78125% 1,0.78125% 1,0.78125% 1,0.78125% 1,0.78125% 1,0.78125% 1,0.78125% 1,0.78125% 1,0.78125% 1,0.78125% 1,0.78125% 1,0.78125% 1,0.78125% 1,0.78125% 1,0.78125% 1,0.78125% 1,0.78125% 1,0.78125% 1,0.78125% 1,0.78125% 1,0.78125% 1,0.78125% 1,0.78125% 1,0.78125% 1,0.78125% 1,0.78125% 1,0.78125% 1,0.78125% 1,0.78125% 1,0.78125% 1,0.78125% 1,0.78125% 1,0.78125% 1,0.78125% 1,0.78125% 1,0.78125% 1,0.78125% 1,0.78125% 1,0.78125% 1,0.78125% 1,0.78125% 1,0.78125% 1,0.78125% 1,0.78125% 1,0.78125% 1,0.78125% 1,0.78125% 1,0.78125% 1,0.78125% 1,0.78125% 1,0.78125% 1,0.78125% 1,0.78125% 1,0.78125% 1,0.78125% 1,0.78125% 1,0.78125%"></path><path class="index103 og2" d="M0,50%l1,0.78125% 1,0.78125% 1,0.78125% 1,0.78125% 1,0.78125% 1,0.78125% 1,0.78125% 1,0.78125% 1,0.78125% 1,0.78125% 1,0.78125% 1,0.78125% 1,0.78125% 1,0.78125% 1,0.78125% 1,0.78125% 1,0.78125% 1,0.78125% 1,0.78125% 1,0.78125% 1,0.78125% 1,0.78125% 1,0.78125% 1,0.78125% 1,0.78125% 1,0.78125% 1,0.78125% 1,0.78125% 1,0.78125% 1,0.78125% 1,0.78125% 1,0.78125% 1,0.78125% 1,0.78125% 1,0.78125% 1,0.78125% 1,0.78125% 1,0.78125% 1,0.78125% 1,0.78125% 1,0.78125% 1,0.78125% 1,0.78125% 1,0.78125% 1,0.78125% 1,0.78125% 1,0.78125% 1,0.78125% 1,0.78125% 1,0.78125% 1,0.78125% 1,0.78125% 1,0.78125% 1,0.78125% 1,0.78125% 1,0.78125% 1,0.78125% 1,0.78125% 1,0.78125% 1,0.78125% 1,0.78125% 1,0.78125% 1,0.78125%"></path><path class="index104 og2" d="M0,50%l1,0.78125% 1,0.78125% 1,0.78125% 1,0.78125% 1,0.78125% 1,0.78125% 1,0.78125% 1,0.78125% 1,0.78125% 1,0.78125% 1,0.78125% 1,0.78125% 1,0.78125% 1,0.78125% 1,0.78125% 1,0.78125% 1,0.78125% 1,0.78125% 1,0.78125% 1,0.78125% 1,0.78125% 1,0.78125% 1,0.78125% 1,0.78125% 1,0.78125% 1,0.78125% 1,0.78125% 1,0.78125% 1,0.78125% 1,0.78125% 1,0.78125% 1,0.78125% 1,0.78125% 1,0.78125% 1,0.78125% 1,0.78125% 1,0.78125% 1,0.78125% 1,0.78125% 1,0.78125% 1,0.78125% 1,0.78125% 1,0.78125% 1,0.78125% 1,0.78125% 1,0.78125% 1,0.78125% 1,0.78125% 1,0.78125% 1,0.78125% 1,0.78125% 1,0.78125% 1,0.78125% 1,0.78125% 1,0.78125% 1,0.78125% 1,0.78125% 1,0.78125% 1,0.78125% 1,0.78125% 1,0.78125% 1,0.78125% 1,0.78125%"></path><path class="index105 og2" d="M0,50%l1,0.78125% 1,0.78125% 1,0.78125% 1,0.78125% 1,0.78125% 1,0.78125% 1,0.78125% 1,0.78125% 1,0.78125% 1,0.78125% 1,0.78125% 1,0.78125% 1,0.78125% 1,0.78125% 1,0.78125% 1,0.78125% 1,0.78125% 1,0.78125% 1,0.78125% 1,0.78125% 1,0.78125% 1,0.78125% 1,0.78125% 1,0.78125% 1,0.78125% 1,0.78125% 1,0.78125% 1,0.78125% 1,0.78125% 1,0.78125% 1,0.78125% 1,0.78125% 1,0.78125% 1,0.78125% 1,0.78125% 1,0.78125% 1,0.78125% 1,0.78125% 1,0.78125% 1,0.78125% 1,0.78125% 1,0.78125% 1,0.78125% 1,0.78125% 1,0.78125% 1,0.78125% 1,0.78125% 1,0.78125% 1,0.78125% 1,0.78125% 1,0.78125% 1,0.78125% 1,0.78125% 1,0.78125% 1,0.78125% 1,0.78125% 1,0.78125% 1,0.78125% 1,0.78125% 1,0.78125% 1,0.78125% 1,0.78125% 1,0.78125%"></path><path class="index106 og2" d="M0,50%l1,0.78125% 1,0.78125% 1,0.78125% 1,0.78125% 1,0.78125% 1,0.78125% 1,0.78125% 1,0.78125% 1,0.78125% 1,0.78125% 1,0.78125% 1,0.78125% 1,0.78125% 1,0.78125% 1,0.78125% 1,0.78125% 1,0.78125% 1,0.78125% 1,0.78125% 1,0.78125% 1,0.78125% 1,0.78125% 1,0.78125% 1,0.78125% 1,0.78125% 1,0.78125% 1,0.78125% 1,0.78125% 1,0.78125% 1,0.78125% 1,0.78125% 1,0.78125% 1,0.78125% 1,0.78125% 1,0.78125% 1,0.78125% 1,0.78125% 1,0.78125% 1,0.78125% 1,0.78125% 1,0.78125% 1,0.78125% 1,0.78125% 1,0.78125% 1,0.78125% 1,0.78125% 1,0.78125% 1,0.78125% 1,0.78125% 1,0.78125% 1,0.78125% 1,0.78125% 1,0.78125% 1,0.78125% 1,0.78125% 1,0.78125% 1,0.78125% 1,0.78125% 1,0.78125% 1,0.78125% 1,0.78125% 1,0.78125% 1,0.78125%"></path><path class="index107 og2" d="M0,50%l1,0.78125% 1,0.78125% 1,0.78125% 1,0.78125% 1,0.78125% 1,0.78125% 1,0.78125% 1,0.78125% 1,0.78125% 1,0.78125% 1,0.78125% 1,0.78125% 1,0.78125% 1,0.78125% 1,0.78125% 1,0.78125% 1,0.78125% 1,0.78125% 1,0.78125% 1,0.78125% 1,0.78125% 1,0.78125% 1,0.78125% 1,0.78125% 1,0.78125% 1,0.78125% 1,0.78125% 1,0.78125% 1,0.78125% 1,0.78125% 1,0.78125% 1,0.78125% 1,0.78125% 1,0.78125% 1,0.78125% 1,0.78125% 1,0.78125% 1,0.78125% 1,0.78125% 1,0.78125% 1,0.78125% 1,0.78125% 1,0.78125% 1,0.78125% 1,0.78125% 1,0.78125% 1,0.78125% 1,0.78125% 1,0.78125% 1,0.78125% 1,0.78125% 1,0.78125% 1,0.78125% 1,0.78125% 1,0.78125% 1,0.78125% 1,0.78125% 1,0.78125% 1,0.78125% 1,0.78125% 1,0.78125% 1,0.78125% 1,0.78125%"></path><path class="index108 og2" d="M0,50%l1,0.78125% 1,0.78125% 1,0.78125% 1,0.78125% 1,0.78125% 1,0.78125% 1,0.78125% 1,0.78125% 1,0.78125% 1,0.78125% 1,0.78125% 1,0.78125% 1,0.78125% 1,0.78125% 1,0.78125% 1,0.78125% 1,0.78125% 1,0.78125% 1,0.78125% 1,0.78125% 1,0.78125% 1,0.78125% 1,0.78125% 1,0.78125% 1,0.78125% 1,0.78125% 1,0.78125% 1,0.78125% 1,0.78125% 1,0.78125% 1,0.78125% 1,0.78125% 1,0.78125% 1,0.78125% 1,0.78125% 1,0.78125% 1,0.78125% 1,0.78125% 1,0.78125% 1,0.78125% 1,0.78125% 1,0.78125% 1,0.78125% 1,0.78125% 1,0.78125% 1,0.78125% 1,0.78125% 1,0.78125% 1,0.78125% 1,0.78125% 1,0.78125% 1,0.78125% 1,0.78125% 1,0.78125% 1,0.78125% 1,0.78125% 1,0.78125% 1,0.78125% 1,0.78125% 1,0.78125% 1,0.78125% 1,0.78125% 1,0.78125%"></path><path class="index109 og2" d="M0,50%l1,0.78125% 1,0.78125% 1,0.78125% 1,0.78125% 1,0.78125% 1,0.78125% 1,0.78125% 1,0.78125% 1,0.78125% 1,0.78125% 1,0.78125% 1,0.78125% 1,0.78125% 1,0.78125% 1,0.78125% 1,0.78125% 1,0.78125% 1,0.78125% 1,0.78125% 1,0.78125% 1,0.78125% 1,0.78125% 1,0.78125% 1,0.78125% 1,0.78125% 1,0.78125% 1,0.78125% 1,0.78125% 1,0.78125% 1,0.78125% 1,0.78125% 1,0.78125% 1,0.78125% 1,0.78125% 1,0.78125% 1,0.78125% 1,0.78125% 1,0.78125% 1,0.78125% 1,0.78125% 1,0.78125% 1,0.78125% 1,0.78125% 1,0.78125% 1,0.78125% 1,0.78125% 1,0.78125% 1,0.78125% 1,0.78125% 1,0.78125% 1,0.78125% 1,0.78125% 1,0.78125% 1,0.78125% 1,0.78125% 1,0.78125% 1,0.78125% 1,0.78125% 1,0.78125% 1,0.78125% 1,0.78125% 1,0.78125% 1,0.78125%"></path><path class="index110 og2" d="M0,50%l1,0.78125% 1,0.78125% 1,0.78125% 1,0.78125% 1,0.78125% 1,0.78125% 1,0.78125% 1,0.78125% 1,0.78125% 1,0.78125% 1,0.78125% 1,0.78125% 1,0.78125% 1,0.78125% 1,0.78125% 1,0.78125% 1,0.78125% 1,0.78125% 1,0.78125% 1,0.78125% 1,0.78125% 1,0.78125% 1,0.78125% 1,0.78125% 1,0.78125% 1,0.78125% 1,0.78125% 1,0.78125% 1,0.78125% 1,0.78125% 1,0.78125% 1,0.78125% 1,0.78125% 1,0.78125% 1,0.78125% 1,0.78125% 1,0.78125% 1,0.78125% 1,0.78125% 1,0.78125% 1,0.78125% 1,0.78125% 1,0.78125% 1,0.78125% 1,0.78125% 1,0.78125% 1,0.78125% 1,0.78125% 1,0.78125% 1,0.78125% 1,0.78125% 1,0.78125% 1,0.78125% 1,0.78125% 1,0.78125% 1,0.78125% 1,0.78125% 1,0.78125% 1,0.78125% 1,0.78125% 1,0.78125% 1,0.78125% 1,0.78125%"></path><path class="index111 og2" d="M0,50%l1,0.78125% 1,0.78125% 1,0.78125% 1,0.78125% 1,0.78125% 1,0.78125% 1,0.78125% 1,0.78125% 1,0.78125% 1,0.78125% 1,0.78125% 1,0.78125% 1,0.78125% 1,0.78125% 1,0.78125% 1,0.78125% 1,0.78125% 1,0.78125% 1,0.78125% 1,0.78125% 1,0.78125% 1,0.78125% 1,0.78125% 1,0.78125% 1,0.78125% 1,0.78125% 1,0.78125% 1,0.78125% 1,0.78125% 1,0.78125% 1,0.78125% 1,0.78125% 1,0.78125% 1,0.78125% 1,0.78125% 1,0.78125% 1,0.78125% 1,0.78125% 1,0.78125% 1,0.78125% 1,0.78125% 1,0.78125% 1,0.78125% 1,0.78125% 1,0.78125% 1,0.78125% 1,0.78125% 1,0.78125% 1,0.78125% 1,0.78125% 1,0.78125% 1,0.78125% 1,0.78125% 1,0.78125% 1,0.78125% 1,0.78125% 1,0.78125% 1,0.78125% 1,0.78125% 1,0.78125% 1,0.78125% 1,0.78125% 1,0.78125%"></path><path class="index112 og2" d="M0,50%l1,0.78125% 1,0.78125% 1,0.78125% 1,0.78125% 1,0.78125% 1,0.78125% 1,0.78125% 1,0.78125% 1,0.78125% 1,0.78125% 1,0.78125% 1,0.78125% 1,0.78125% 1,0.78125% 1,0.78125% 1,0.78125% 1,0.78125% 1,0.78125% 1,0.78125% 1,0.78125% 1,0.78125% 1,0.78125% 1,0.78125% 1,0.78125% 1,0.78125% 1,0.78125% 1,0.78125% 1,0.78125% 1,0.78125% 1,0.78125% 1,0.78125% 1,0.78125% 1,0.78125% 1,0.78125% 1,0.78125% 1,0.78125% 1,0.78125% 1,0.78125% 1,0.78125% 1,0.78125% 1,0.78125% 1,0.78125% 1,0.78125% 1,0.78125% 1,0.78125% 1,0.78125% 1,0.78125% 1,0.78125% 1,0.78125% 1,0.78125% 1,0.78125% 1,0.78125% 1,0.78125% 1,0.78125% 1,0.78125% 1,0.78125% 1,0.78125% 1,0.78125% 1,0.78125% 1,0.78125% 1,0.78125% 1,0.78125% 1,0.78125%"></path><path class="index113 og2" d="M0,50%l1,0.78125% 1,0.78125% 1,0.78125% 1,0.78125% 1,0.78125% 1,0.78125% 1,0.78125% 1,0.78125% 1,0.78125% 1,0.78125% 1,0.78125% 1,0.78125% 1,0.78125% 1,0.78125% 1,0.78125% 1,0.78125% 1,0.78125% 1,0.78125% 1,0.78125% 1,0.78125% 1,0.78125% 1,0.78125% 1,0.78125% 1,0.78125% 1,0.78125% 1,0.78125% 1,0.78125% 1,0.78125% 1,0.78125% 1,0.78125% 1,0.78125% 1,0.78125% 1,0.78125% 1,0.78125% 1,0.78125% 1,0.78125% 1,0.78125% 1,0.78125% 1,0.78125% 1,0.78125% 1,0.78125% 1,0.78125% 1,0.78125% 1,0.78125% 1,0.78125% 1,0.78125% 1,0.78125% 1,0.78125% 1,0.78125% 1,0.78125% 1,0.78125% 1,0.78125% 1,0.78125% 1,0.78125% 1,0.78125% 1,0.78125% 1,0.78125% 1,0.78125% 1,0.78125% 1,0.78125% 1,0.78125% 1,0.78125% 1,0.78125%"></path><path class="index114 og2" d="M0,50%l1,0.78125% 1,0.78125% 1,0.78125% 1,0.78125% 1,0.78125% 1,0.78125% 1,0.78125% 1,0.78125% 1,0.78125% 1,0.78125% 1,0.78125% 1,0.78125% 1,0.78125% 1,0.78125% 1,0.78125% 1,0.78125% 1,0.78125% 1,0.78125% 1,0.78125% 1,0.78125% 1,0.78125% 1,0.78125% 1,0.78125% 1,0.78125% 1,0.78125% 1,0.78125% 1,0.78125% 1,0.78125% 1,0.78125% 1,0.78125% 1,0.78125% 1,0.78125% 1,0.78125% 1,0.78125% 1,0.78125% 1,0.78125% 1,0.78125% 1,0.78125% 1,0.78125% 1,0.78125% 1,0.78125% 1,0.78125% 1,0.78125% 1,0.78125% 1,0.78125% 1,0.78125% 1,0.78125% 1,0.78125% 1,0.78125% 1,0.78125% 1,0.78125% 1,0.78125% 1,0.78125% 1,0.78125% 1,0.78125% 1,0.78125% 1,0.78125% 1,0.78125% 1,0.78125% 1,0.78125% 1,0.78125% 1,0.78125% 1,0.78125%"></path><path class="index115 og2" d="M0,50%l1,0.78125% 1,0.78125% 1,0.78125% 1,0.78125% 1,0.78125% 1,0.78125% 1,0.78125% 1,0.78125% 1,0.78125% 1,0.78125% 1,0.78125% 1,0.78125% 1,0.78125% 1,0.78125% 1,0.78125% 1,0.78125% 1,0.78125% 1,0.78125% 1,0.78125% 1,0.78125% 1,0.78125% 1,0.78125% 1,0.78125% 1,0.78125% 1,0.78125% 1,0.78125% 1,0.78125% 1,0.78125% 1,0.78125% 1,0.78125% 1,0.78125% 1,0.78125% 1,0.78125% 1,0.78125% 1,0.78125% 1,0.78125% 1,0.78125% 1,0.78125% 1,0.78125% 1,0.78125% 1,0.78125% 1,0.78125% 1,0.78125% 1,0.78125% 1,0.78125% 1,0.78125% 1,0.78125% 1,0.78125% 1,0.78125% 1,0.78125% 1,0.78125% 1,0.78125% 1,0.78125% 1,0.78125% 1,0.78125% 1,0.78125% 1,0.78125% 1,0.78125% 1,0.78125% 1,0.78125% 1,0.78125% 1,0.78125% 1,0.78125%"></path><path class="index116 og2" d="M0,50%l1,0.78125% 1,0.78125% 1,0.78125% 1,0.78125% 1,0.78125% 1,0.78125% 1,0.78125% 1,0.78125% 1,0.78125% 1,0.78125% 1,0.78125% 1,0.78125% 1,0.78125% 1,0.78125% 1,0.78125% 1,0.78125% 1,0.78125% 1,0.78125% 1,0.78125% 1,0.78125% 1,0.78125% 1,0.78125% 1,0.78125% 1,0.78125% 1,0.78125% 1,0.78125% 1,0.78125% 1,0.78125% 1,0.78125% 1,0.78125% 1,0.78125% 1,0.78125% 1,0.78125% 1,0.78125% 1,0.78125% 1,0.78125% 1,0.78125% 1,0.78125% 1,0.78125% 1,0.78125% 1,0.78125% 1,0.78125% 1,0.78125% 1,0.78125% 1,0.78125% 1,0.78125% 1,0.78125% 1,0.78125% 1,0.78125% 1,0.78125% 1,0.78125% 1,0.78125% 1,0.78125% 1,0.78125% 1,0.78125% 1,0.78125% 1,0.78125% 1,0.78125% 1,0.78125% 1,0.78125% 1,0.78125% 1,0.78125% 1,0.78125%"></path><path class="index117 og2" d="M0,50%l1,0.78125% 1,0.78125% 1,0.78125% 1,0.78125% 1,0.78125% 1,0.78125% 1,0.78125% 1,0.78125% 1,0.78125% 1,0.78125% 1,0.78125% 1,0.78125% 1,0.78125% 1,0.78125% 1,0.78125% 1,0.78125% 1,0.78125% 1,0.78125% 1,0.78125% 1,0.78125% 1,0.78125% 1,0.78125% 1,0.78125% 1,0.78125% 1,0.78125% 1,0.78125% 1,0.78125% 1,0.78125% 1,0.78125% 1,0.78125% 1,0.78125% 1,0.78125% 1,0.78125% 1,0.78125% 1,0.78125% 1,0.78125% 1,0.78125% 1,0.78125% 1,0.78125% 1,0.78125% 1,0.78125% 1,0.78125% 1,0.78125% 1,0.78125% 1,0.78125% 1,0.78125% 1,0.78125% 1,0.78125% 1,0.78125% 1,0.78125% 1,0.78125% 1,0.78125% 1,0.78125% 1,0.78125% 1,0.78125% 1,0.78125% 1,0.78125% 1,0.78125% 1,0.78125% 1,0.78125% 1,0.78125% 1,0.78125% 1,0.78125%"></path><path class="index118 og2" d="M0,50%l1,0.78125% 1,0.78125% 1,0.78125% 1,0.78125% 1,0.78125% 1,0.78125% 1,0.78125% 1,0.78125% 1,0.78125% 1,0.78125% 1,0.78125% 1,0.78125% 1,0.78125% 1,0.78125% 1,0.78125% 1,0.78125% 1,0.78125% 1,0.78125% 1,0.78125% 1,0.78125% 1,0.78125% 1,0.78125% 1,0.78125% 1,0.78125% 1,0.78125% 1,0.78125% 1,0.78125% 1,0.78125% 1,0.78125% 1,0.78125% 1,0.78125% 1,0.78125% 1,0.78125% 1,0.78125% 1,0.78125% 1,0.78125% 1,0.78125% 1,0.78125% 1,0.78125% 1,0.78125% 1,0.78125% 1,0.78125% 1,0.78125% 1,0.78125% 1,0.78125% 1,0.78125% 1,0.78125% 1,0.78125% 1,0.78125% 1,0.78125% 1,0.78125% 1,0.78125% 1,0.78125% 1,0.78125% 1,0.78125% 1,0.78125% 1,0.78125% 1,0.78125% 1,0.78125% 1,0.78125% 1,0.78125% 1,0.78125% 1,0.78125%"></path><path class="index119 og2" d="M0,50%l1,0.78125% 1,0.78125% 1,0.78125% 1,0.78125% 1,0.78125% 1,0.78125% 1,0.78125% 1,0.78125% 1,0.78125% 1,0.78125% 1,0.78125% 1,0.78125% 1,0.78125% 1,0.78125% 1,0.78125% 1,0.78125% 1,0.78125% 1,0.78125% 1,0.78125% 1,0.78125% 1,0.78125% 1,0.78125% 1,0.78125% 1,0.78125% 1,0.78125% 1,0.78125% 1,0.78125% 1,0.78125% 1,0.78125% 1,0.78125% 1,0.78125% 1,0.78125% 1,0.78125% 1,0.78125% 1,0.78125% 1,0.78125% 1,0.78125% 1,0.78125% 1,0.78125% 1,0.78125% 1,0.78125% 1,0.78125% 1,0.78125% 1,0.78125% 1,0.78125% 1,0.78125% 1,0.78125% 1,0.78125% 1,0.78125% 1,0.78125% 1,0.78125% 1,0.78125% 1,0.78125% 1,0.78125% 1,0.78125% 1,0.78125% 1,0.78125% 1,0.78125% 1,0.78125% 1,0.78125% 1,0.78125% 1,0.78125% 1,0.78125%"></path><path class="index120 og2" d="M0,50%l1,0.78125% 1,0.78125% 1,0.78125% 1,0.78125% 1,0.78125% 1,0.78125% 1,0.78125% 1,0.78125% 1,0.78125% 1,0.78125% 1,0.78125% 1,0.78125% 1,0.78125% 1,0.78125% 1,0.78125% 1,0.78125% 1,0.78125% 1,0.78125% 1,0.78125% 1,0.78125% 1,0.78125% 1,0.78125% 1,0.78125% 1,0.78125% 1,0.78125% 1,0.78125% 1,0.78125% 1,0.78125% 1,0.78125% 1,0.78125% 1,0.78125% 1,0.78125% 1,0.78125% 1,0.78125% 1,0.78125% 1,0.78125% 1,0.78125% 1,0.78125% 1,0.78125% 1,0.78125% 1,0.78125% 1,0.78125% 1,0.78125% 1,0.78125% 1,0.78125% 1,0.78125% 1,0.78125% 1,0.78125% 1,0.78125% 1,0.78125% 1,0.78125% 1,0.78125% 1,0.78125% 1,0.78125% 1,0.78125% 1,0.78125% 1,0.78125% 1,0.78125% 1,0.78125% 1,0.78125% 1,0.78125% 1,0.78125% 1,0.78125%"></path><path class="index121 og2" d="M0,50%l1,0.78125% 1,0.78125% 1,0.78125% 1,0.78125% 1,0.78125% 1,0.78125% 1,0.78125% 1,0.78125% 1,0.78125% 1,0.78125% 1,0.78125% 1,0.78125% 1,0.78125% 1,0.78125% 1,0.78125% 1,0.78125% 1,0.78125% 1,0.78125% 1,0.78125% 1,0.78125% 1,0.78125% 1,0.78125% 1,0.78125% 1,0.78125% 1,0.78125% 1,0.78125% 1,0.78125% 1,0.78125% 1,0.78125% 1,0.78125% 1,0.78125% 1,0.78125% 1,0.78125% 1,0.78125% 1,0.78125% 1,0.78125% 1,0.78125% 1,0.78125% 1,0.78125% 1,0.78125% 1,0.78125% 1,0.78125% 1,0.78125% 1,0.78125% 1,0.78125% 1,0.78125% 1,0.78125% 1,0.78125% 1,0.78125% 1,0.78125% 1,0.78125% 1,0.78125% 1,0.78125% 1,0.78125% 1,0.78125% 1,0.78125% 1,0.78125% 1,0.78125% 1,0.78125% 1,0.78125% 1,0.78125% 1,0.78125% 1,0.78125%"></path><path class="index122 og2" d="M0,50%l1,0.78125% 1,0.78125% 1,0.78125% 1,0.78125% 1,0.78125% 1,0.78125% 1,0.78125% 1,0.78125% 1,0.78125% 1,0.78125% 1,0.78125% 1,0.78125% 1,0.78125% 1,0.78125% 1,0.78125% 1,0.78125% 1,0.78125% 1,0.78125% 1,0.78125% 1,0.78125% 1,0.78125% 1,0.78125% 1,0.78125% 1,0.78125% 1,0.78125% 1,0.78125% 1,0.78125% 1,0.78125% 1,0.78125% 1,0.78125% 1,0.78125% 1,0.78125% 1,0.78125% 1,0.78125% 1,0.78125% 1,0.78125% 1,0.78125% 1,0.78125% 1,0.78125% 1,0.78125% 1,0.78125% 1,0.78125% 1,0.78125% 1,0.78125% 1,0.78125% 1,0.78125% 1,0.78125% 1,0.78125% 1,0.78125% 1,0.78125% 1,0.78125% 1,0.78125% 1,0.78125% 1,0.78125% 1,0.78125% 1,0.78125% 1,0.78125% 1,0.78125% 1,0.78125% 1,0.78125% 1,0.78125% 1,0.78125% 1,0.78125%"></path><path class="index123 og2" d="M0,50%l1,0.78125% 1,0.78125% 1,0.78125% 1,0.78125% 1,0.78125% 1,0.78125% 1,0.78125% 1,0.78125% 1,0.78125% 1,0.78125% 1,0.78125% 1,0.78125% 1,0.78125% 1,0.78125% 1,0.78125% 1,0.78125% 1,0.78125% 1,0.78125% 1,0.78125% 1,0.78125% 1,0.78125% 1,0.78125% 1,0.78125% 1,0.78125% 1,0.78125% 1,0.78125% 1,0.78125% 1,0.78125% 1,0.78125% 1,0.78125% 1,0.78125% 1,0.78125% 1,0.78125% 1,0.78125% 1,0.78125% 1,0.78125% 1,0.78125% 1,0.78125% 1,0.78125% 1,0.78125% 1,0.78125% 1,0.78125% 1,0.78125% 1,0.78125% 1,0.78125% 1,0.78125% 1,0.78125% 1,0.78125% 1,0.78125% 1,0.78125% 1,0.78125% 1,0.78125% 1,0.78125% 1,0.78125% 1,0.78125% 1,0.78125% 1,0.78125% 1,0.78125% 1,0.78125% 1,0.78125% 1,0.78125% 1,0.78125% 1,0.78125%"></path><path class="index124 og2" d="M0,50%l1,0.78125% 1,0.78125% 1,0.78125% 1,0.78125% 1,0.78125% 1,0.78125% 1,0.78125% 1,0.78125% 1,0.78125% 1,0.78125% 1,0.78125% 1,0.78125% 1,0.78125% 1,0.78125% 1,0.78125% 1,0.78125% 1,0.78125% 1,0.78125% 1,0.78125% 1,0.78125% 1,0.78125% 1,0.78125% 1,0.78125% 1,0.78125% 1,0.78125% 1,0.78125% 1,0.78125% 1,0.78125% 1,0.78125% 1,0.78125% 1,0.78125% 1,0.78125% 1,0.78125% 1,0.78125% 1,0.78125% 1,0.78125% 1,0.78125% 1,0.78125% 1,0.78125% 1,0.78125% 1,0.78125% 1,0.78125% 1,0.78125% 1,0.78125% 1,0.78125% 1,0.78125% 1,0.78125% 1,0.78125% 1,0.78125% 1,0.78125% 1,0.78125% 1,0.78125% 1,0.78125% 1,0.78125% 1,0.78125% 1,0.78125% 1,0.78125% 1,0.78125% 1,0.78125% 1,0.78125% 1,0.78125% 1,0.78125% 1,0.78125%"></path><path class="index125 og2" d="M0,50%l1,0.78125% 1,0.78125% 1,0.78125% 1,0.78125% 1,0.78125% 1,0.78125% 1,0.78125% 1,0.78125% 1,0.78125% 1,0.78125% 1,0.78125% 1,0.78125% 1,0.78125% 1,0.78125% 1,0.78125% 1,0.78125% 1,0.78125% 1,0.78125% 1,0.78125% 1,0.78125% 1,0.78125% 1,0.78125% 1,0.78125% 1,0.78125% 1,0.78125% 1,0.78125% 1,0.78125% 1,0.78125% 1,0.78125% 1,0.78125% 1,0.78125% 1,0.78125% 1,0.78125% 1,0.78125% 1,0.78125% 1,0.78125% 1,0.78125% 1,0.78125% 1,0.78125% 1,0.78125% 1,0.78125% 1,0.78125% 1,0.78125% 1,0.78125% 1,0.78125% 1,0.78125% 1,0.78125% 1,0.78125% 1,0.78125% 1,0.78125% 1,0.78125% 1,0.78125% 1,0.78125% 1,0.78125% 1,0.78125% 1,0.78125% 1,0.78125% 1,0.78125% 1,0.78125% 1,0.78125% 1,0.78125% 1,0.78125% 1,0.78125%"></path><path class="index126 og2" d="M0,50%l1,0.78125% 1,0.78125% 1,0.78125% 1,0.78125% 1,0.78125% 1,0.78125% 1,0.78125% 1,0.78125% 1,0.78125% 1,0.78125% 1,0.78125% 1,0.78125% 1,0.78125% 1,0.78125% 1,0.78125% 1,0.78125% 1,0.78125% 1,0.78125% 1,0.78125% 1,0.78125% 1,0.78125% 1,0.78125% 1,0.78125% 1,0.78125% 1,0.78125% 1,0.78125% 1,0.78125% 1,0.78125% 1,0.78125% 1,0.78125% 1,0.78125% 1,0.78125% 1,0.78125% 1,0.78125% 1,0.78125% 1,0.78125% 1,0.78125% 1,0.78125% 1,0.78125% 1,0.78125% 1,0.78125% 1,0.78125% 1,0.78125% 1,0.78125% 1,0.78125% 1,0.78125% 1,0.78125% 1,0.78125% 1,0.78125% 1,0.78125% 1,0.78125% 1,0.78125% 1,0.78125% 1,0.78125% 1,0.78125% 1,0.78125% 1,0.78125% 1,0.78125% 1,0.78125% 1,0.78125% 1,0.78125% 1,0.78125% 1,0.78125%"></path>
</svg>