<svg xmlns="http://www.w3.org/2000/svg" xmlns:svg="http://www.w3.org/2000/svg" viewBox="0 0 64 64">
 <g fill="#70a6c9" stroke="none" stroke-width="0">
  <title>Kaci</title>
  <path
  	d="m12.72112,64.82224c0.02227,-2.36895 4.22004,-3.14938 5.94324,-4.79292c6.65185,-4.06325 13.13306,-8.75433 17.21041,-15.1579c4.33165,-6.54278 6.68074,-14.5572 4.91871,-22.14649c-0.93439,-4.70922 -5.96328,-8.47822 -11.28437,-7.88882c-3.50452,0.43639 -7.55262,1.17064 -9.58035,4.11571c-2.20104,1.5047 -0.99009,5.03132 1.94421,3.6919c3.7541,-1.30433 8.46921,1.35539 8.32074,5.12518c0.00435,3.57448 -3.97106,6.09607 -7.6758,5.76055c-4.12636,-0.03755 -8.21111,-3.06802 -8.12486,-6.99666c-0.28598,-6.3319 5.73303,-11.5034 12.17575,-12.83047c5.76084,-1.6339 12.45821,-0.97643 17.31606,2.42251c3.61467,2.24901 6.4612,5.6585 7.05508,9.68284c1.28223,5.23215 -0.37483,10.63175 -3.24935,15.18365c-3.6943,6.13221 -9.33903,11.15233 -15.89153,14.75355c-6.08582,3.53252 -12.41606,6.72281 -18.96469,9.48802c-0.03775,-0.13688 -0.07549,-0.27376 -0.11324,-0.41064l0,0zm43.71979,-25.81692c-3.13319,-1.29144 -2.44193,-6.53913 1.20501,-6.65716c2.72886,-0.57939 5.2778,2.01662 4.43541,4.41727c-0.53139,2.24649 -3.49442,3.22015 -5.64042,2.23988l0,0.00001zm0,-14.35536c-3.13319,-1.29144 -2.44193,-6.53913 1.20501,-6.65715c2.72886,-0.57939 5.2778,2.01662 4.43541,4.41727c-0.5452,2.25411 -3.47916,3.21604 -5.64042,2.23988z"
  	transform="rotate(-90 37.48307800292969,39.0403938293457)"
  />
 </g>
</svg>